<svg width="18" height="14" viewBox="0 0 18 14" fill="none" xmlns="http://www.w3.org/2000/svg">
<path d="M16.875 0H0.625C0.45924 0 0.300268 0.0658481 0.183058 0.183058C0.065848 0.300269 0 0.45924 0 0.625V13.125C0 13.2908 0.065848 13.4497 0.183058 13.5669C0.300268 13.6842 0.45924 13.75 0.625 13.75H16.875C17.0408 13.75 17.1997 13.6842 17.3169 13.5669C17.4342 13.4497 17.5 13.2908 17.5 13.125V0.625C17.5 0.45924 17.4342 0.300269 17.3169 0.183058C17.1997 0.0658481 17.0408 0 16.875 0ZM9.13359 7.99336C9.02391 8.07863 8.88893 8.12492 8.75 8.12492C8.61107 8.12492 8.47609 8.07863 8.36641 7.99336L2.24805 3.23477L3.01523 2.24805L8.75 6.7082L14.4848 2.24805L15.252 3.23477L9.13359 7.99336Z" fill="#282828"/>
</svg>
