<svg width="18" height="18" viewBox="0 0 18 18" fill="none" xmlns="http://www.w3.org/2000/svg">
<path d="M16.9985 10.6094C17.1272 10.0304 17.1914 9.43888 17.1899 8.84573C17.1899 4.30198 13.452 0.615257 8.8387 0.615257C8.36076 0.614911 7.88361 0.654107 7.41214 0.732444C6.64114 0.251128 5.74993 -0.00274906 4.84104 2.24514e-05C2.16995 2.24514e-05 2.6067e-05 2.13752 2.6067e-05 4.77151C-0.00281605 5.6223 0.226802 6.4577 0.664089 7.18752C0.552256 7.73186 0.495719 8.28611 0.495339 8.84182C0.495339 13.3903 4.23323 17.0723 8.84182 17.0723C9.35392 17.0736 9.86505 17.0278 10.3688 16.9356C11.0748 17.3074 11.861 17.5012 12.659 17.5C15.3348 17.5 17.5 15.3625 17.5 12.7285C17.5045 11.9922 17.3325 11.2656 16.9985 10.6094ZM13.125 12.7735C12.7375 13.311 12.1676 13.7395 11.4293 14.0403C10.691 14.341 9.81878 14.4922 8.81604 14.4922C7.61721 14.4922 6.61448 14.2824 5.82581 13.8723C5.27908 13.5846 4.80757 13.1725 4.44924 12.6692C4.09339 12.168 3.91565 11.6668 3.91565 11.1848C3.91565 10.884 4.03284 10.6242 4.26214 10.4055C4.49026 10.1957 4.78635 10.0864 5.13284 10.0864C5.41995 10.0864 5.66604 10.1684 5.86682 10.3371C6.05823 10.4965 6.22229 10.7336 6.35432 11.0434C6.4823 11.3401 6.6439 11.6211 6.83596 11.8809C7.00055 12.0949 7.2331 12.2727 7.53362 12.4141C7.83909 12.5555 8.24456 12.6281 8.74456 12.6281C9.43284 12.6281 9.99807 12.4824 10.4219 12.1953C10.8414 11.9172 11.0422 11.5801 11.0422 11.1699C11.0422 10.8465 10.9371 10.591 10.7184 10.3906C10.4907 10.1809 10.1942 10.0168 9.82503 9.90744C9.44651 9.79026 8.93167 9.66604 8.29339 9.53401C7.42737 9.35159 6.69182 9.13284 6.10589 8.88674C5.50901 8.63596 5.02581 8.28518 4.66995 7.85237C4.30979 7.41018 4.13206 6.85432 4.13206 6.20237C4.12594 5.59981 4.3253 5.01315 4.69729 4.53908C5.07112 4.06057 5.6137 3.68674 6.32034 3.43166C7.01331 3.17658 7.83831 3.04885 8.76799 3.04885C9.51565 3.04885 10.1676 3.13557 10.7145 3.29963C11.2614 3.46369 11.7266 3.69612 12.0957 3.97854C12.4649 4.26096 12.734 4.56174 12.9071 4.87698C13.0801 5.19221 13.1672 5.51057 13.1672 5.81448C13.1672 6.10588 13.0532 6.37502 12.825 6.60744C12.7144 6.72257 12.5811 6.81358 12.4337 6.87475C12.2862 6.93592 12.1276 6.96594 11.968 6.96291C11.6582 6.96291 11.4164 6.88987 11.2481 6.74416C11.0918 6.60744 10.9289 6.39768 10.7512 6.09221C10.5414 5.7051 10.2907 5.39494 10.0035 5.17619C9.72073 4.96682 9.25589 4.85744 8.60862 4.85744C8.01135 4.85744 7.52385 4.97463 7.16331 5.20901C6.81682 5.43244 6.64807 5.69221 6.64807 5.99729C6.64377 6.17209 6.70382 6.34237 6.81682 6.4758C6.9543 6.63398 7.12362 6.76137 7.3137 6.84963C7.52775 6.95723 7.75222 7.0427 7.98362 7.10471C8.21799 7.16877 8.60354 7.26448 9.13714 7.38284C9.81604 7.52424 10.436 7.6883 10.9832 7.85666C11.5395 8.0344 12.018 8.24729 12.4098 8.49924C12.7989 8.74491 13.1227 9.0812 13.3535 9.47932C13.577 9.86995 13.691 10.3633 13.691 10.9285C13.7159 11.5898 13.5164 12.2399 13.125 12.7735Z" fill="#282828"/>
</svg>
