<svg width="72" height="74" viewBox="0 0 72 74" fill="none" xmlns="http://www.w3.org/2000/svg">
<path fill-rule="evenodd" clip-rule="evenodd" d="M36.6483 0L68.2967 19.6809V54.7128L36.6483 74L5 54.7128V19.6809L36.6483 0Z" fill="black"/>
<path d="M36.6483 1.85669L6.58242 20.5535V53.8308L36.6483 72.1537L66.7143 53.8308V20.5535L36.6483 1.85669ZM36.6483 0L68.2967 19.6809V54.7128L36.6483 74L5 54.7128V19.6809L36.6483 0Z" fill="#FFD409"/>
<path fill-rule="evenodd" clip-rule="evenodd" d="M36.6923 5L9 22.2207V52.8737L36.6923 69.75L64.3846 52.8737V22.2207L36.6923 5Z" fill="#FFD409"/>
<path d="M71.7341 26H1V48.3575H71.7341V26Z" fill="black" stroke="black" stroke-width="16"/>
<path fill-rule="evenodd" clip-rule="evenodd" d="M31 15H32.1139C32.2289 15 32.325 15.026 32.4022 15.078C32.4793 15.1301 32.5296 15.199 32.5532 15.2849L33.3376 18.2507C33.3611 18.347 33.3847 18.4498 33.4082 18.559C33.4317 18.6683 33.4553 18.7828 33.4788 18.9024C33.5259 18.6579 33.5834 18.4407 33.6514 18.2507L34.577 15.2849C34.6005 15.212 34.6509 15.1463 34.728 15.0878C34.8051 15.0293 34.8986 15 35.0084 15H35.4006C35.5157 15 35.6085 15.0267 35.6791 15.08C35.7497 15.1333 35.8033 15.2016 35.8399 15.2849L36.7577 18.2507C36.8257 18.4328 36.8832 18.6397 36.9303 18.8712C36.9512 18.7567 36.9728 18.6475 36.995 18.5434C37.0172 18.4394 37.0401 18.3418 37.0636 18.2507L37.8481 15.2849C37.869 15.2094 37.9187 15.1431 37.9971 15.0859C38.0755 15.0286 38.1697 15 38.2795 15H39.3228L37.5578 20.6859H36.3576L35.283 17.162C35.2438 17.0501 35.2058 16.9213 35.1692 16.7756C35.1326 16.9213 35.0947 17.0501 35.0555 17.162L33.9651 20.6859H32.765L31 15ZM41.3308 15.0051H42.1452L40.5469 20.1332C40.4442 20.4627 40.1379 20.6873 39.7912 20.6873H39.0043L40.5739 15.5628C40.6754 15.2315 40.9826 15.0051 41.3308 15.0051Z" fill="black"/>
<path fill-rule="evenodd" clip-rule="evenodd" d="M22.9495 56.4953L22 53.8786H22.6694L23.1536 55.4751L23.5903 53.8786H24.084L24.5208 55.4751L25.005 53.8786H25.6744L24.7249 56.4953H24.3356L23.8372 54.7996L23.3387 56.4953H22.9495ZM28.6224 53.8786V56.4953H28.0433V56.1411H28.0338C27.923 56.2891 27.7909 56.3985 27.6374 56.4693C27.4839 56.5402 27.3233 56.5772 27.1555 56.5804C26.8042 56.5804 26.502 56.4544 26.2488 56.2025C25.9956 55.9506 25.869 55.6199 25.869 55.2106C25.869 54.8043 25.9948 54.4666 26.2464 54.1974C26.498 53.9281 26.8074 53.7935 27.1745 53.7935C27.3581 53.7935 27.5234 53.8321 27.6706 53.9093C27.8178 53.9864 27.9388 54.099 28.0338 54.247H28.0433V53.8786H28.6224ZM27.2742 54.3887C27.0463 54.3887 26.8604 54.4666 26.7164 54.6225C26.5724 54.7784 26.5004 54.9744 26.5004 55.2106C26.4972 55.4373 26.5676 55.6231 26.7116 55.7679C26.8557 55.9128 27.0432 55.9852 27.2742 55.9852C27.4989 55.9852 27.6809 55.9112 27.8201 55.7632C27.9594 55.6152 28.029 55.4215 28.029 55.1822C28.029 54.9555 27.9594 54.7666 27.8201 54.6154C27.6809 54.4643 27.4989 54.3887 27.2742 54.3887ZM31.7604 53V56.4953H31.1812V56.1411H31.1717C31.0673 56.2859 30.9415 56.3946 30.7943 56.467C30.6471 56.5394 30.4849 56.5772 30.3077 56.5804C29.9501 56.5804 29.6439 56.4481 29.3891 56.1836C29.1343 55.9191 29.0069 55.59 29.0069 55.1964C29.0038 54.7933 29.1304 54.4588 29.3867 54.1927C29.6431 53.9266 29.9564 53.7935 30.3267 53.7935C30.4976 53.7967 30.6495 53.829 30.7824 53.8904C30.9153 53.9518 31.0277 54.0376 31.1195 54.1478H31.129V53H31.7604ZM30.3979 54.3887C30.1795 54.3887 29.9983 54.4635 29.8543 54.613C29.7103 54.7626 29.6383 54.9539 29.6383 55.1869C29.6383 55.4168 29.7087 55.6073 29.8496 55.7585C29.9904 55.9096 30.1732 55.9852 30.3979 55.9852C30.6194 55.9884 30.803 55.9144 30.9486 55.7632C31.0942 55.6121 31.1669 55.42 31.1669 55.1869C31.1669 54.9571 31.0934 54.7666 30.9462 54.6154C30.799 54.4643 30.6163 54.3887 30.3979 54.3887ZM32.2683 56.4953V53H32.8997V56.4953H32.2683ZM33.4076 56.4953V53.8786H34.039V56.4953H33.4076ZM33.4076 53.5763V53H34.039V53.5763H33.4076ZM34.547 56.4953V53.8786H35.1262V54.1195H35.1357C35.2179 54.0155 35.32 53.9352 35.4418 53.8786C35.5637 53.8219 35.7022 53.7935 35.8572 53.7935C36.1642 53.7935 36.4119 53.8982 36.6002 54.1076C36.7885 54.317 36.8826 54.6028 36.8826 54.9649V56.4953H36.2513V55.1066C36.2481 54.8673 36.2006 54.6878 36.1088 54.5682C36.0171 54.4485 35.8889 54.3887 35.7243 54.3887C35.5407 54.3887 35.4031 54.4501 35.3113 54.5729C35.2195 54.6957 35.1752 54.8736 35.1784 55.1066V56.4953H34.547ZM40.0206 55.4656H37.9603C37.9982 55.6262 38.0797 55.753 38.2047 55.8459C38.3298 55.9388 38.4777 55.9852 38.6486 55.9852C38.7752 55.9884 38.8884 55.9687 38.988 55.9262C39.0877 55.8836 39.1708 55.8215 39.2373 55.7396H39.9494C39.8386 56.0009 39.6709 56.2064 39.4462 56.356C39.2215 56.5056 38.9635 56.5804 38.6724 56.5804C38.2767 56.5804 37.946 56.4481 37.6802 56.1836C37.4143 55.9191 37.2814 55.5932 37.2814 55.2058C37.2814 54.8185 37.4151 54.4863 37.6826 54.2092C37.95 53.9321 38.2831 53.7935 38.6818 53.7935C39.0775 53.7935 39.4011 53.9274 39.6527 54.195C39.9043 54.4627 40.0316 54.7933 40.0348 55.1869C40.0348 55.2499 40.0332 55.3027 40.0301 55.3452C40.0269 55.3877 40.0237 55.4278 40.0206 55.4656ZM37.9508 54.9083H39.3749C39.3306 54.7477 39.2452 54.6209 39.1186 54.528C38.992 54.4351 38.8464 54.3887 38.6818 54.3887C38.5078 54.3918 38.3551 54.4399 38.2237 54.5327C38.0924 54.6256 38.0014 54.7508 37.9508 54.9083ZM40.5238 56.4953V55.8671H41.1552V56.4953H40.5238ZM43.6902 55.6451H44.4023C44.2978 55.9317 44.1341 56.1592 43.9109 56.3276C43.6878 56.4961 43.418 56.5804 43.1015 56.5804C42.6838 56.5804 42.3372 56.4481 42.0619 56.1836C41.7865 55.9191 41.6489 55.5806 41.6489 55.1681C41.6489 54.7776 41.7842 54.4509 42.0548 54.1879C42.3254 53.925 42.6664 53.7935 43.0778 53.7935C43.4038 53.7935 43.6839 53.8801 43.9181 54.0533C44.1523 54.2265 44.3137 54.458 44.4023 54.7477H43.6902C43.6269 54.6312 43.5422 54.543 43.4362 54.4832C43.3302 54.4233 43.2076 54.3918 43.0683 54.3887C42.8246 54.3887 42.6324 54.465 42.4915 54.6178C42.3507 54.7705 42.2803 54.9571 42.2803 55.1775C42.2803 55.4105 42.3523 55.6042 42.4963 55.7585C42.6403 55.9128 42.8309 55.9884 43.0683 55.9852C43.2012 55.9852 43.3223 55.9576 43.4315 55.9025C43.5407 55.8474 43.6269 55.7616 43.6902 55.6451ZM46.0638 53.7935C46.4594 53.7935 46.7909 53.9305 47.0584 54.2045C47.3258 54.4784 47.4595 54.8075 47.4595 55.1917C47.4595 55.579 47.3258 55.9073 47.0584 56.1765C46.7909 56.4457 46.4594 56.5804 46.0638 56.5804C45.6651 56.5804 45.3327 56.4457 45.0669 56.1765C44.8011 55.9073 44.6681 55.579 44.6681 55.1917C44.6681 54.8075 44.8011 54.4784 45.0669 54.2045C45.3327 53.9305 45.6651 53.7935 46.0638 53.7935ZM46.0638 54.3887C45.836 54.3887 45.6516 54.4674 45.5108 54.6249C45.3699 54.7823 45.2995 54.9712 45.2995 55.1917C45.2964 55.4121 45.366 55.5995 45.5084 55.7538C45.6508 55.9081 45.836 55.9852 46.0638 55.9852C46.2885 55.9884 46.4721 55.912 46.6145 55.7561C46.7569 55.6002 46.8281 55.4121 46.8281 55.1917C46.8281 54.9712 46.7569 54.7823 46.6145 54.6249C46.4721 54.4674 46.2885 54.3887 46.0638 54.3887ZM47.8393 56.4953V53.8786H48.4185V54.1195H48.428C48.5007 54.0155 48.5981 53.9352 48.7199 53.8786C48.8418 53.8219 48.9723 53.7935 49.1116 53.7935C49.273 53.7935 49.4217 53.8305 49.5578 53.9045C49.6939 53.9785 49.8015 54.0769 49.8806 54.1997C49.9787 54.0675 50.0982 53.9667 50.239 53.8974C50.3799 53.8282 50.5405 53.7935 50.7209 53.7935C51.0437 53.7935 51.3032 53.8982 51.4994 54.1076C51.6957 54.317 51.7938 54.6028 51.7938 54.9649V56.4953H51.1624V55.1066C51.1624 54.8705 51.1197 54.6918 51.0342 54.5705C50.9487 54.4493 50.819 54.3887 50.6449 54.3887C50.4709 54.3918 50.3419 54.4532 50.258 54.5729C50.1742 54.6926 50.1322 54.8705 50.1322 55.1066V56.4953H49.5008V55.1066C49.5008 54.8705 49.4581 54.6918 49.3727 54.5705C49.2872 54.4493 49.1574 54.3887 48.9834 54.3887C48.8093 54.3887 48.6796 54.4493 48.5941 54.5705C48.5087 54.6918 48.4675 54.8705 48.4707 55.1066V56.4953H47.8393Z" fill="black"/>
<path fill-rule="evenodd" clip-rule="evenodd" d="M23.233 36.3351V32.0344H22.2575V31.0921H25.1842V32.0344H24.2086V36.3351H23.233ZM28.093 31C28.8763 31 29.535 31.2669 30.0691 31.8006C30.6031 32.3344 30.8702 32.9815 30.8702 33.7419C30.8702 34.5024 30.602 35.146 30.0655 35.6726C29.5291 36.1993 28.8716 36.4626 28.093 36.4626C27.3097 36.4626 26.6499 36.1993 26.1134 35.6726C25.577 35.146 25.3111 34.5024 25.3159 33.7419C25.3159 32.9815 25.5817 32.3344 26.1134 31.8006C26.6451 31.2669 27.305 31 28.093 31ZM28.0859 35.5203C28.5986 35.5203 29.0282 35.3444 29.3748 34.9925C29.7213 34.6406 29.8946 34.2166 29.8946 33.7207C29.8946 33.2294 29.7213 32.8102 29.3748 32.4631C29.0282 32.1159 28.601 31.9423 28.093 31.9423C27.5803 31.9423 27.1519 32.1159 26.8077 32.4631C26.4635 32.8102 26.2915 33.2294 26.2915 33.7207C26.2915 34.2214 26.4635 34.6465 26.8077 34.996C27.1519 35.3455 27.578 35.5203 28.0859 35.5203ZM31.6499 36.3351V31.0921H33.1239C33.7268 31.0968 34.1921 31.2444 34.5196 31.5349C34.8472 31.8254 35.011 32.2234 35.011 32.7288C35.011 33.2058 34.8519 33.5955 34.5339 33.8978C34.2158 34.2001 33.7458 34.3513 33.1239 34.3513H32.6255V36.3351H31.6499ZM32.6255 32.0344V33.4089H33.2023C33.4681 33.4089 33.6722 33.3523 33.8147 33.2389C33.9571 33.1255 34.0307 32.9531 34.0354 32.7217C34.0354 32.495 33.963 32.3237 33.8182 32.208C33.6734 32.0923 33.4681 32.0344 33.2023 32.0344H32.6255ZM38.5572 36.3351L37.0262 31.0921H38.0231L38.9417 34.7622L39.8389 31.0921H40.551L41.4482 34.7622L42.3668 31.0921H43.3638L41.8328 36.3351H41.0566L40.195 32.8705L39.3333 36.3351H38.5572ZM43.9726 36.3351V31.0921H46.7996V32.0344H44.9482V33.246H46.7213V34.1883H44.9482V35.3928H46.7996V36.3351H43.9726ZM47.7645 36.3351V31.0921H49.032C49.6444 31.0968 50.1025 31.2208 50.4063 31.4641C50.7101 31.7073 50.862 32.0439 50.862 32.4737C50.862 32.7099 50.8098 32.9118 50.7054 33.0795C50.6009 33.2472 50.4609 33.3782 50.2852 33.4727C50.5653 33.5672 50.7849 33.7278 50.9439 33.9545C51.103 34.1812 51.1825 34.4434 51.1825 34.7409C51.1825 35.2511 51.0068 35.6443 50.6555 35.9206C50.3042 36.1969 49.7797 36.3351 49.0818 36.3351H47.7645ZM48.74 35.3928H49.3738C49.6396 35.3975 49.8449 35.3408 49.9897 35.2227C50.1345 35.1046 50.2069 34.9417 50.2069 34.7339C50.2069 34.526 50.1357 34.3619 49.9933 34.2414C49.8509 34.121 49.6444 34.0584 49.3738 34.0537H48.74V35.3928ZM48.74 33.1114H49.1958C49.4189 33.1114 49.5886 33.0629 49.7049 32.9661C49.8212 32.8693 49.8817 32.7382 49.8865 32.5729C49.8865 32.3934 49.8271 32.2588 49.7085 32.169C49.5898 32.0793 49.4189 32.0344 49.1958 32.0344H48.74V33.1114ZM16 44.2074V38.9644H17.4598C18.338 38.9644 19.0287 39.1876 19.532 39.634C20.0352 40.0804 20.2868 40.7404 20.2868 41.6143C20.2868 42.3842 20.0542 43.0089 19.5889 43.4883C19.1237 43.9677 18.4211 44.2074 17.4811 44.2074H16ZM16.9756 43.2651H17.4527C18.0508 43.2698 18.5089 43.1376 18.827 42.8683C19.1451 42.5991 19.3065 42.1811 19.3112 41.6143C19.3112 41.0286 19.1462 40.5976 18.8163 40.3212C18.4864 40.0449 18.0152 39.9068 17.4028 39.9068H16.9756V43.2651ZM21.0736 44.2074V38.9644H23.9006V39.9068H22.0492V41.1183H23.8223V42.0606H22.0492V43.2651H23.9006V44.2074H21.0736ZM26.4677 44.2074L24.4311 38.9644H25.4565L26.8736 42.9534L28.2906 38.9644H29.316L27.2795 44.2074H26.4677ZM29.9391 44.2074V38.9644H32.7661V39.9068H30.9147V41.1183H32.6878V42.0606H30.9147V43.2651H32.7661V44.2074H29.9391ZM33.731 44.2074V38.9644H34.7065V43.2651H36.3159V44.2074H33.731ZM39.2532 38.8723C40.0365 38.8723 40.6952 39.1392 41.2293 39.673C41.7633 40.2067 42.0304 40.8538 42.0304 41.6143C42.0304 42.3748 41.7622 43.0183 41.2257 43.545C40.6893 44.0716 40.0318 44.335 39.2532 44.335C38.4699 44.335 37.8101 44.0716 37.2736 43.545C36.7372 43.0183 36.4713 42.3748 36.4761 41.6143C36.4761 40.8538 36.7419 40.2067 37.2736 39.673C37.8053 39.1392 38.4652 38.8723 39.2532 38.8723ZM39.2461 43.3926C39.7588 43.3926 40.1884 43.2167 40.535 42.8648C40.8815 42.5129 41.0548 42.089 41.0548 41.593C41.0548 41.1018 40.8815 40.6826 40.535 40.3354C40.1884 39.9882 39.7612 39.8147 39.2532 39.8147C38.7405 39.8147 38.3121 39.9882 37.9679 40.3354C37.6237 40.6826 37.4516 41.1018 37.4516 41.593C37.4516 42.0937 37.6237 42.5188 37.9679 42.8683C38.3121 43.2179 38.7381 43.3926 39.2461 43.3926ZM42.8101 44.2074V38.9644H44.2841C44.887 38.9692 45.3523 39.1168 45.6798 39.4073C46.0074 39.6978 46.1712 40.0957 46.1712 40.6011C46.1712 41.0782 46.0121 41.4679 45.6941 41.7702C45.376 42.0725 44.906 42.2236 44.2841 42.2236H43.7857V44.2074H42.8101ZM43.7857 39.9068V41.2813H44.3625C44.6283 41.2813 44.8324 41.2246 44.9749 41.1112C45.1173 40.9979 45.1909 40.8255 45.1956 40.594C45.1956 40.3673 45.1232 40.1961 44.9784 40.0804C44.8336 39.9646 44.6283 39.9068 44.3625 39.9068H43.7857ZM46.8868 44.2074V38.9644H49.7138V39.9068H47.8624V41.1183H49.6355V42.0606H47.8624V43.2651H49.7138V44.2074H46.8868ZM50.6787 44.2074V38.9644H52.2025C52.8387 38.9644 53.3276 39.1132 53.6694 39.4108C54.0113 39.7084 54.1822 40.1146 54.1822 40.6294C54.1822 41.0593 54.0504 41.4312 53.7869 41.7454C53.5235 42.0595 53.1805 42.2354 52.758 42.2732L54.2391 44.2074H53.0357L51.6685 42.2732H51.6542V44.2074H50.6787ZM51.6542 39.9068V41.4655H52.231C52.5301 41.4655 52.7675 41.4029 52.9431 41.2777C53.1188 41.1526 53.2066 40.9554 53.2066 40.6861C53.2018 40.4216 53.1128 40.2256 52.9396 40.0981C52.7663 39.9705 52.5301 39.9068 52.231 39.9068H51.6542ZM54.5133 42.7337H55.5316C55.5363 42.9368 55.6063 43.0974 55.7416 43.2155C55.8769 43.3336 56.0419 43.3926 56.2365 43.3926C56.4454 43.3926 56.6163 43.3312 56.7492 43.2084C56.8822 43.0856 56.9486 42.9274 56.9486 42.7337C56.9486 42.5448 56.8869 42.3807 56.7635 42.2413C56.64 42.102 56.4454 41.9874 56.1796 41.8977C55.909 41.8127 55.7618 41.7654 55.7381 41.756C55.7143 41.7465 55.6906 41.7347 55.6669 41.7206C55.3393 41.5883 55.0972 41.4017 54.9405 41.1608C54.7839 40.9199 54.7055 40.6531 54.7055 40.3602C54.7055 39.9351 54.8563 39.5809 55.1577 39.2974C55.4592 39.014 55.8306 38.8723 56.2721 38.8723C56.6946 38.8723 57.0483 39.0093 57.3331 39.2833C57.618 39.5572 57.7723 39.9162 57.796 40.3602H56.792C56.7872 40.1996 56.735 40.0685 56.6353 39.967C56.5356 39.8654 56.4051 39.8147 56.2436 39.8147C56.0775 39.8194 55.941 39.8702 55.8342 39.967C55.7274 40.0638 55.6763 40.1973 55.6811 40.3673C55.6811 40.5185 55.7298 40.6436 55.8271 40.7428C55.9244 40.842 56.1012 40.9294 56.3576 41.005C56.5095 41.0569 56.6163 41.0935 56.678 41.1148C56.7397 41.136 56.7991 41.1561 56.856 41.175C57.1789 41.3073 57.4376 41.4986 57.6322 41.7489C57.8269 41.9992 57.9242 42.3086 57.9242 42.677C57.9242 43.1494 57.7628 43.5438 57.44 43.8603C57.1171 44.1767 56.7089 44.335 56.2152 44.335C55.7262 44.335 55.3203 44.1815 54.9975 43.8744C54.6747 43.5674 54.5133 43.1872 54.5133 42.7337Z" fill="white"/>
</svg>
