<svg width="18" height="18" viewBox="0 0 18 18" fill="none" xmlns="http://www.w3.org/2000/svg">
<path d="M17.4586 13.2083C17.2547 12.9912 16.5347 12.349 15.2113 11.4994C13.8781 10.6423 12.8949 10.108 12.6129 9.98334C12.588 9.97232 12.5606 9.96827 12.5336 9.97165C12.5067 9.97502 12.4811 9.98568 12.4597 10.0025C12.0054 10.3568 11.2406 11.0076 11.1996 11.0427C10.9347 11.2697 10.9347 11.2697 10.7179 11.199C10.3367 11.074 9.15232 10.4451 8.12028 9.41069C7.08825 8.37631 6.42692 7.16264 6.30192 6.78178C6.23044 6.56459 6.23044 6.56459 6.45817 6.29975C6.49333 6.25873 7.1445 5.49389 7.4988 5.03998C7.5156 5.01861 7.52626 4.99306 7.52964 4.96608C7.53301 4.9391 7.52896 4.91171 7.51794 4.88686C7.39333 4.60444 6.85895 3.62162 6.00192 2.28842C5.15114 0.965373 4.50974 0.245451 4.29255 0.0415447C4.27262 0.0227373 4.24798 0.0096538 4.22124 0.00367284C4.1945 -0.00230813 4.16664 -0.000965052 4.1406 0.0075604C3.38141 0.268453 2.64891 0.601349 1.9531 1.0017C1.28139 1.39218 0.645454 1.84119 0.052705 2.3435C0.0320135 2.36109 0.0165006 2.38398 0.00782981 2.40972C-0.000840958 2.43545 -0.00234245 2.46307 0.00348627 2.48959C0.0851269 2.87006 0.475361 4.45834 1.6863 6.65834C2.92185 8.90365 3.7781 10.054 5.59255 11.8622C7.407 13.6705 8.59372 14.5783 10.8414 15.8138C13.0414 17.0247 14.6304 17.4154 15.0101 17.4962C15.0367 17.502 15.0644 17.5005 15.0902 17.4918C15.1159 17.4832 15.1389 17.4677 15.1566 17.447C15.6588 16.8543 16.1077 16.2183 16.498 15.5466C16.8983 14.8508 17.2312 14.1183 17.4922 13.3591C17.5005 13.3333 17.5018 13.3057 17.4959 13.2792C17.49 13.2526 17.4771 13.2282 17.4586 13.2083Z" fill="#282828"/>
</svg>
