<svg width="10" height="7" viewBox="0 0 10 7" fill="none" xmlns="http://www.w3.org/2000/svg">
<path d="M0.20836 3.28126H9.28875L6.51937 0.373412C6.43798 0.287955 6.43798 0.149528 6.51937 0.0640921C6.60076 -0.021364 6.73259 -0.021364 6.81396 0.0640921L9.93896 3.34534C10.0203 3.4308 10.0203 3.56923 9.93896 3.65466L6.81396 6.93591C6.77328 6.97863 6.71996 7 6.66666 7C6.61336 7 6.56006 6.97863 6.51935 6.93591C6.43797 6.85046 6.43797 6.71203 6.51935 6.62659L9.28875 3.71877H0.20834C0.0931835 3.71877 0 3.62093 0 3.50001C0 3.3791 0.0932035 3.28126 0.20836 3.28126Z" fill="#FBFCFD"/>
</svg>
