<svg width="188" height="34" viewBox="0 0 188 34" fill="none" xmlns="http://www.w3.org/2000/svg">
<path fill-rule="evenodd" clip-rule="evenodd" d="M25.8286 6.95341C23.4323 3.75831 19.511 1.25305 15.6261 0.417967C12.8667 -0.162961 0.340388 -0.126653 0.12254 0.454275C0.0136155 0.708432 -0.0226925 8.2605 0.0136155 17.2649L0.12254 33.6035H7.74722C14.2464 33.6035 15.6624 33.4946 17.3688 32.9136C21.7621 31.425 25.6471 27.9031 27.644 23.6914C28.6243 21.6219 28.8059 20.7868 28.9148 17.8821C29.0963 13.0895 28.2976 10.2574 25.8286 6.95341ZM87.8064 17.1923L82.106 8.58727L76.4057 0.0185792H67.4739V33.8213L76.3694 33.6035V25.1437C76.3694 20.5326 76.442 16.7203 76.5509 16.7203C76.6598 16.7203 77.0592 17.2649 77.4586 17.8821C77.8217 18.5357 78.2937 19.2255 78.4752 19.4434C78.6205 19.6249 80.7626 22.82 83.1953 26.5234C85.5916 30.2269 87.7701 33.3493 87.9516 33.4946C88.1695 33.6398 90.2753 33.785 92.6354 33.785H96.8834V0.0185792H87.8064V17.1923ZM122.045 7.64326C123.388 7.71588 123.316 7.28018 121.391 3.35892L119.794 0.0185792H107.05V33.785H121.21C129.379 33.785 135.37 33.6398 135.37 33.4583C135.37 33.1678 132.538 26.9591 132.247 26.5961C132.211 26.5234 128.544 26.4871 124.151 26.5234L116.127 26.5597V20.3511H122.662C126.257 20.3511 129.198 20.2421 129.161 20.0606C129.161 19.9154 128.399 18.2452 127.455 16.3572L125.748 12.9079L116.127 12.6901V7.64326L118.596 7.60696C119.939 7.57065 121.464 7.60696 122.045 7.64326ZM145.645 14.8323C144.665 12.7627 142.74 8.65989 141.361 5.64632L138.783 0.200119L134.353 0.0911953C131.921 0.0548872 129.924 0.127503 129.924 0.309043C129.924 0.490583 132.102 5.28324 134.789 10.9473C136.462 14.5225 138.121 18.0543 139.244 20.447C139.901 21.8449 140.374 22.854 140.562 23.2557C141.034 24.345 142.377 27.177 143.503 29.537L145.572 33.8213L149.639 33.6035L155.593 20.8957C158.861 13.8882 162.347 6.51771 163.363 4.44816C164.344 2.3786 165.142 0.526891 165.142 0.345351C165.142 0.127503 163.363 0.0548872 160.713 0.0911953L156.283 0.200119L153.887 5.28324C152.58 8.07896 150.656 12.2181 149.639 14.4692C148.586 16.684 147.642 18.5357 147.533 18.5357C147.46 18.5357 146.589 16.8655 145.645 14.8323ZM187.109 11.383C185.584 6.84449 182.788 3.61307 178.613 1.50721C177.415 0.889972 176.144 0.381659 175.781 0.381659C175.309 0.417967 174.619 1.4709 173.421 4.12139C172.44 6.19094 171.678 8.04265 171.678 8.2605C171.678 8.47835 172.223 8.76881 172.876 8.87774C176.071 9.49497 178.722 13.0532 178.685 16.7203C178.649 21.1135 175.272 24.3813 170.807 24.3813C168.882 24.3813 165.869 23.4373 165.869 22.8563C165.869 22.6748 165.614 22.5296 165.324 22.5296C164.997 22.5296 164.162 23.8729 163.182 25.9788C161.748 29.0392 161.147 30.1443 161.467 30.7961C161.69 31.2501 162.361 31.4842 163.509 32.0059C170.153 35.0195 177.959 33.6035 183.079 28.4478C187.653 23.8366 189.142 17.4827 187.109 11.383ZM55.456 11.0925C58.2517 5.64632 60.4302 1.07151 60.3212 0.962588C60.176 0.853664 59.9945 0.781048 59.8855 0.817356C59.7766 0.853664 57.9612 0.962588 55.8554 0.998896L52.043 1.14413L46.5242 12.5448L44.3457 8.00634L44.1763 7.64104C43.0697 5.25523 41.9733 2.89148 41.7315 2.26968L41.2595 1.10782H36.9389C34.5425 1.10782 32.6182 1.18044 32.6182 1.28936C32.6182 1.39828 34.833 5.86417 37.5198 11.2378L42.4214 21.0046V33.0589H50.4091V20.9683L55.456 11.0925ZM9.01801 25.18V8.98666L11.9227 9.20451C15.2993 9.45867 17.1873 10.2938 18.7486 12.2181C20.7455 14.6144 21.1449 18.2815 19.6563 20.6415C17.8046 23.6188 15.8439 24.708 11.85 24.9622L9.01801 25.18Z" fill="url(#paint0_linear)"/>
<defs>
<linearGradient id="paint0_linear" x1="-116" y1="-28" x2="-68.9814" y2="238.136" gradientUnits="userSpaceOnUse">
<stop stop-color="#243676"/>
<stop offset="1" stop-color="#E64555"/>
</linearGradient>
</defs>
</svg>
