<svg width="68" height="26" viewBox="0 0 68 26" fill="none" xmlns="http://www.w3.org/2000/svg">
<g clip-path="url(#clip0)">
<path fill-rule="evenodd" clip-rule="evenodd" d="M8.88557 24.6854L4.88993 23.2824V17.5526L8.88557 18.8846V24.6854ZM9.61853 24.6854L13.6142 23.2827V17.5526L9.61853 18.8846V24.6854ZM5.30054 17.124L9.34443 16.0101L13.0942 17.1931L9.34443 18.4388L5.30054 17.124ZM4.12845 16.6803L0.132812 15.2779V9.54754L4.12845 10.8795V16.6803ZM4.8614 16.6803L8.85731 15.2779V9.54754L4.8614 10.8795V16.6803ZM0.543415 9.11869L4.58758 8.00507L8.33739 9.18808L4.58758 10.4337L0.543415 9.11895V9.11869ZM13.4521 16.6803L9.45615 15.2779V9.54754L13.4521 10.8795V16.6803ZM14.185 16.6803L18.1809 15.2779V9.54754L14.185 10.8795V16.6803ZM9.86729 9.11869L13.9112 8.00507L17.6607 9.18808L13.9112 10.4337L9.86729 9.11895V9.11869ZM18.2092 8.6747L14.2133 7.27283V1.54248L18.2092 2.87418V8.6747ZM18.9421 8.6747L22.9378 7.27283V1.54248L18.9419 2.87418V8.6747H18.9421ZM14.6241 1.11388L18.6683 0L22.4179 1.18275L18.6683 2.42862L14.6241 1.11388ZM27.5331 8.6747L23.5371 7.27283V1.54248L27.5331 2.87418V8.6747ZM28.2657 8.6747L32.2616 7.27283V1.54248L28.2657 2.87418V8.6747ZM23.9477 1.11388L27.9919 0L31.7415 1.18275L27.9919 2.42836L23.9477 1.11362" fill="#FF9900"/>
<path fill-rule="evenodd" clip-rule="evenodd" d="M25.4989 20.9531L24.1567 25.5153H23.5736L22.5284 22.1267L21.5704 25.5153H20.9759L19.5801 20.9531H20.3013L21.3174 24.3529L22.2847 20.9531H22.8169L23.8685 24.3639L24.9128 20.9531H25.4986H25.4989Z" fill="black"/>
<path fill-rule="evenodd" clip-rule="evenodd" d="M25.4989 20.9531L24.1567 25.5153H23.5736L22.5284 22.1267L21.5704 25.5153H20.9759L19.5801 20.9531H20.3013L21.3174 24.3529L22.2847 20.9531H22.8169L23.8685 24.3639L24.9128 20.9531H25.4986H25.4989Z" fill="black"/>
<path fill-rule="evenodd" clip-rule="evenodd" d="M29.2145 24.154L29.8901 24.2897C29.7672 24.6796 29.5275 25.0028 29.1716 25.2582C28.8148 25.5139 28.3957 25.6417 27.9131 25.6417C27.2772 25.6417 26.7626 25.4226 26.3693 24.9838C25.9758 24.5456 25.7793 23.9701 25.7793 23.2587C25.7793 22.5322 25.9838 21.9453 26.3923 21.4976C26.8007 21.05 27.314 20.8262 27.9318 20.8262C28.5405 20.8262 29.0295 21.0323 29.3998 21.4444C29.7699 21.8566 29.9597 22.4733 29.9691 23.2945H26.5848C26.5848 23.9844 26.732 24.4496 27.0268 24.6909C27.3215 24.9316 27.6332 25.0522 27.9616 25.0522C28.5543 25.0522 28.9721 24.7527 29.2145 24.154ZM29.1751 22.7657C29.1689 22.51 29.126 22.2826 29.046 22.0838C28.966 21.8853 28.8311 21.716 28.6407 21.5759C28.4504 21.4361 28.2213 21.3662 27.9542 21.3662C27.595 21.3662 27.2903 21.4924 27.0399 21.7455C26.7895 21.9985 26.6493 22.3381 26.6186 22.7654H29.1751V22.7657Z" fill="black"/>
<path fill-rule="evenodd" clip-rule="evenodd" d="M29.2145 24.154L29.8901 24.2897C29.7672 24.6796 29.5275 25.0028 29.1716 25.2582C28.8148 25.5139 28.3957 25.6417 27.9131 25.6417C27.2772 25.6417 26.7626 25.4226 26.3693 24.9838C25.9758 24.5456 25.7793 23.9701 25.7793 23.2587C25.7793 22.5322 25.9838 21.9453 26.3923 21.4976C26.8007 21.05 27.314 20.8262 27.9318 20.8262C28.5405 20.8262 29.0295 21.0323 29.3998 21.4444C29.7699 21.8566 29.9597 22.4733 29.9691 23.2945H26.5848C26.5848 23.9844 26.732 24.4496 27.0268 24.6909C27.3215 24.9316 27.6332 25.0522 27.9616 25.0522C28.5543 25.0522 28.9721 24.7527 29.2145 24.154ZM29.1751 22.7657C29.1689 22.51 29.126 22.2826 29.046 22.0838C28.966 21.8853 28.8311 21.716 28.6407 21.5759C28.4504 21.4361 28.2213 21.3662 27.9542 21.3662C27.595 21.3662 27.2903 21.4924 27.0399 21.7455C26.7895 21.9985 26.6493 22.3381 26.6186 22.7654H29.1751V22.7657Z" fill="black"/>
<path fill-rule="evenodd" clip-rule="evenodd" d="M31.2712 25.5142H30.9219V19.3545H31.6484V21.7127C31.9801 21.1211 32.4374 20.8255 33.0205 20.8255C33.5543 20.8255 34.0017 21.0318 34.3624 21.445C34.7232 21.858 34.9037 22.4577 34.9037 23.2445C34.9037 23.9227 34.7261 24.4914 34.3715 24.9513C34.0164 25.4112 33.5548 25.641 32.9864 25.641C32.3534 25.641 31.8681 25.347 31.5303 24.7593L31.2712 25.5142ZM31.6484 23.7255C31.6823 24.194 31.8292 24.5337 32.0889 24.7455C32.3486 24.9568 32.6232 25.0627 32.912 25.0627C33.281 25.0627 33.5786 24.9059 33.8044 24.5924C34.0305 24.2791 34.143 23.8497 34.143 23.3042C34.143 22.717 34.0342 22.255 33.8158 21.919C33.5975 21.583 33.2946 21.4148 32.9074 21.4148C32.6032 21.4148 32.3289 21.5348 32.0844 21.7735C31.8399 22.0129 31.6946 22.3221 31.6484 22.7011V23.7255Z" fill="black"/>
<path fill-rule="evenodd" clip-rule="evenodd" d="M31.2712 25.5142H30.9219V19.3545H31.6484V21.7127C31.9801 21.1211 32.4374 20.8255 33.0205 20.8255C33.5543 20.8255 34.0017 21.0318 34.3624 21.445C34.7232 21.858 34.9037 22.4577 34.9037 23.2445C34.9037 23.9227 34.7261 24.4914 34.3715 24.9513C34.0164 25.4112 33.5548 25.641 32.9864 25.641C32.3534 25.641 31.8681 25.347 31.5303 24.7593L31.2712 25.5142ZM31.6484 23.7255C31.6823 24.194 31.8292 24.5337 32.0889 24.7455C32.3486 24.9568 32.6232 25.0627 32.912 25.0627C33.281 25.0627 33.5786 24.9059 33.8044 24.5924C34.0305 24.2791 34.143 23.8497 34.143 23.3042C34.143 22.717 34.0342 22.255 33.8158 21.919C33.5975 21.583 33.2946 21.4148 32.9074 21.4148C32.6032 21.4148 32.3289 21.5348 32.0844 21.7735C31.8399 22.0129 31.6946 22.3221 31.6484 22.7011V23.7255Z" fill="black"/>
<path fill-rule="evenodd" clip-rule="evenodd" d="M36.7559 24.3327L37.4483 24.1926C37.6024 24.7657 38.089 25.0522 38.9078 25.0522C39.2091 25.0522 39.465 24.9862 39.6741 24.8539C39.8836 24.7219 39.9882 24.5356 39.9882 24.2954C39.9882 23.938 39.7218 23.7113 39.1888 23.6153L38.2068 23.4325C37.8221 23.3602 37.5163 23.2185 37.2886 23.0078C37.0611 22.797 36.9473 22.5184 36.9473 22.172C36.9473 21.7898 37.1025 21.4697 37.4131 21.2122C37.7234 20.9548 38.1418 20.8262 38.6676 20.8262C39.6791 20.8262 40.3036 21.213 40.5401 21.9865L39.8756 22.1263C39.685 21.6526 39.2933 21.4155 38.7004 21.4155C38.4052 21.4155 38.1631 21.4749 37.9741 21.5931C37.7853 21.7115 37.6906 21.8769 37.6906 22.0898C37.6906 22.425 37.9322 22.636 38.4151 22.7232L39.3229 22.8867C40.2734 23.0552 40.7483 23.5065 40.7483 24.2393C40.7483 24.6582 40.5715 24.9971 40.2177 25.2546C39.8639 25.5128 39.393 25.6417 38.8051 25.6417C37.7005 25.6417 37.0172 25.2053 36.7559 24.3327Z" fill="black"/>
<path fill-rule="evenodd" clip-rule="evenodd" d="M36.7559 24.3327L37.4483 24.1926C37.6024 24.7657 38.089 25.0522 38.9078 25.0522C39.2091 25.0522 39.465 24.9862 39.6741 24.8539C39.8836 24.7219 39.9882 24.5356 39.9882 24.2954C39.9882 23.938 39.7218 23.7113 39.1888 23.6153L38.2068 23.4325C37.8221 23.3602 37.5163 23.2185 37.2886 23.0078C37.0611 22.797 36.9473 22.5184 36.9473 22.172C36.9473 21.7898 37.1025 21.4697 37.4131 21.2122C37.7234 20.9548 38.1418 20.8262 38.6676 20.8262C39.6791 20.8262 40.3036 21.213 40.5401 21.9865L39.8756 22.1263C39.685 21.6526 39.2933 21.4155 38.7004 21.4155C38.4052 21.4155 38.1631 21.4749 37.9741 21.5931C37.7853 21.7115 37.6906 21.8769 37.6906 22.0898C37.6906 22.425 37.9322 22.636 38.4151 22.7232L39.3229 22.8867C40.2734 23.0552 40.7483 23.5065 40.7483 24.2393C40.7483 24.6582 40.5715 24.9971 40.2177 25.2546C39.8639 25.5128 39.393 25.6417 38.8051 25.6417C37.7005 25.6417 37.0172 25.2053 36.7559 24.3327Z" fill="black"/>
<path fill-rule="evenodd" clip-rule="evenodd" d="M44.6107 24.154L45.2864 24.2897C45.1637 24.6796 44.924 25.0028 44.5675 25.2582C44.2113 25.5139 43.7917 25.6417 43.3096 25.6417C42.6734 25.6417 42.1586 25.4226 41.7656 24.9838C41.372 24.5456 41.1758 23.9701 41.1758 23.2587C41.1758 22.5322 41.3797 21.9453 41.789 21.4976C42.1975 21.05 42.7105 20.8262 43.3283 20.8262C43.9364 20.8262 44.426 21.0323 44.7963 21.4444C45.1667 21.8566 45.3562 22.4733 45.3653 23.2945H41.981C41.981 23.9844 42.1284 24.4496 42.4231 24.6909C42.718 24.9316 43.0296 25.0522 43.3581 25.0522C43.9506 25.0522 44.3684 24.7527 44.6107 24.154ZM44.5713 22.7657C44.5654 22.51 44.5222 22.2826 44.4425 22.0838C44.3625 21.8853 44.2276 21.716 44.0372 21.5759C43.8469 21.4361 43.6176 21.3662 43.3507 21.3662C42.9915 21.3662 42.6868 21.4924 42.4361 21.7455C42.186 21.9985 42.0452 22.3381 42.0149 22.7654H44.5713V22.7657Z" fill="black"/>
<path fill-rule="evenodd" clip-rule="evenodd" d="M44.6107 24.154L45.2864 24.2897C45.1637 24.6796 44.924 25.0028 44.5675 25.2582C44.2113 25.5139 43.7917 25.6417 43.3096 25.6417C42.6734 25.6417 42.1586 25.4226 41.7656 24.9838C41.372 24.5456 41.1758 23.9701 41.1758 23.2587C41.1758 22.5322 41.3797 21.9453 41.789 21.4976C42.1975 21.05 42.7105 20.8262 43.3283 20.8262C43.9364 20.8262 44.426 21.0323 44.7963 21.4444C45.1667 21.8566 45.3562 22.4733 45.3653 23.2945H41.981C41.981 23.9844 42.1284 24.4496 42.4231 24.6909C42.718 24.9316 43.0296 25.0522 43.3581 25.0522C43.9506 25.0522 44.3684 24.7527 44.6107 24.154ZM44.5713 22.7657C44.5654 22.51 44.5222 22.2826 44.4425 22.0838C44.3625 21.8853 44.2276 21.716 44.0372 21.5759C43.8469 21.4361 43.6176 21.3662 43.3507 21.3662C42.9915 21.3662 42.6868 21.4924 42.4361 21.7455C42.186 21.9985 42.0452 22.3381 42.0149 22.7654H44.5713V22.7657Z" fill="black"/>
<path fill-rule="evenodd" clip-rule="evenodd" d="M46.873 25.5149H46.1465V20.9527H46.7832V22.0162C47.0074 21.518 47.2327 21.1953 47.4585 21.0479C47.6843 20.9 47.9157 20.8262 48.1528 20.8262C48.2264 20.8262 48.3218 20.8316 48.4386 20.8426V21.5203H48.2914C47.892 21.5203 47.5606 21.6656 47.2969 21.9557C47.0327 22.2458 46.8917 22.6269 46.873 23.0996V25.5149Z" fill="black"/>
<path fill-rule="evenodd" clip-rule="evenodd" d="M46.873 25.5149H46.1465V20.9527H46.7832V22.0162C47.0074 21.518 47.2327 21.1953 47.4585 21.0479C47.6843 20.9 47.9157 20.8262 48.1528 20.8262C48.2264 20.8262 48.3218 20.8316 48.4386 20.8426V21.5203H48.2914C47.892 21.5203 47.5606 21.6656 47.2969 21.9557C47.0327 22.2458 46.8917 22.6269 46.873 23.0996V25.5149Z" fill="black"/>
<path fill-rule="evenodd" clip-rule="evenodd" d="M52.9501 20.9531L51.3403 25.5153H50.5876L48.9238 20.9531H49.7274L51.0216 24.6613L52.306 20.9531H52.9501Z" fill="black"/>
<path fill-rule="evenodd" clip-rule="evenodd" d="M52.9501 20.9531L51.3403 25.5153H50.5876L48.9238 20.9531H49.7274L51.0216 24.6613L52.306 20.9531H52.9501Z" fill="black"/>
<path fill-rule="evenodd" clip-rule="evenodd" d="M53.5312 19.3545H54.3085V20.1423H53.5312V19.3545ZM53.5651 20.952H54.2914V25.5142H53.5651V20.952Z" fill="black"/>
<path fill-rule="evenodd" clip-rule="evenodd" d="M53.5312 19.3545H54.3085V20.1423H53.5312V19.3545ZM53.5651 20.952H54.2914V25.5142H53.5651V20.952Z" fill="black"/>
<path fill-rule="evenodd" clip-rule="evenodd" d="M58.0871 23.9171L58.7401 24.0298C58.6478 24.5341 58.4433 24.9288 58.1266 25.2139C57.8098 25.499 57.4147 25.6417 56.9412 25.6417C56.2986 25.6417 55.8085 25.4095 55.4721 24.9452C55.1356 24.4811 54.9668 23.9145 54.9668 23.2452C54.9668 22.5518 55.1446 21.9755 55.4998 21.5156C55.8547 21.056 56.3383 20.8262 56.9502 20.8262C57.4579 20.8262 57.8645 20.9746 58.1703 21.272C58.4767 21.5688 58.6662 21.9528 58.7401 22.4232L58.0868 22.545C57.9639 21.7924 57.5923 21.4155 56.9716 21.4155C56.5721 21.4155 56.265 21.5816 56.0501 21.914C55.8349 22.2466 55.7275 22.6775 55.7275 23.2068C55.7275 23.7906 55.8341 24.2437 56.0474 24.5672C56.2613 24.8904 56.5615 25.0522 56.9486 25.0522C57.5475 25.0522 57.9271 24.6739 58.0871 23.9174V23.9171Z" fill="black"/>
<path fill-rule="evenodd" clip-rule="evenodd" d="M58.0871 23.9171L58.7401 24.0298C58.6478 24.5341 58.4433 24.9288 58.1266 25.2139C57.8098 25.499 57.4147 25.6417 56.9412 25.6417C56.2986 25.6417 55.8085 25.4095 55.4721 24.9452C55.1356 24.4811 54.9668 23.9145 54.9668 23.2452C54.9668 22.5518 55.1446 21.9755 55.4998 21.5156C55.8547 21.056 56.3383 20.8262 56.9502 20.8262C57.4579 20.8262 57.8645 20.9746 58.1703 21.272C58.4767 21.5688 58.6662 21.9528 58.7401 22.4232L58.0868 22.545C57.9639 21.7924 57.5923 21.4155 56.9716 21.4155C56.5721 21.4155 56.265 21.5816 56.0501 21.914C55.8349 22.2466 55.7275 22.6775 55.7275 23.2068C55.7275 23.7906 55.8341 24.2437 56.0474 24.5672C56.2613 24.8904 56.5615 25.0522 56.9486 25.0522C57.5475 25.0522 57.9271 24.6739 58.0871 23.9174V23.9171Z" fill="black"/>
<path fill-rule="evenodd" clip-rule="evenodd" d="M62.8356 24.154L63.5112 24.2897C63.3886 24.6796 63.1486 25.0028 62.7924 25.2582C62.4362 25.5139 62.0165 25.6417 61.5342 25.6417C60.898 25.6417 60.3834 25.4226 59.9902 24.9838C59.5969 24.5456 59.4004 23.9701 59.4004 23.2587C59.4004 22.5322 59.6046 21.9453 60.0136 21.4976C60.4221 21.05 60.9354 20.8262 61.5531 20.8262C62.161 20.8262 62.6508 21.0323 63.0209 21.4444C63.3915 21.8566 63.5808 22.4733 63.5902 23.2945H60.2056C60.2056 23.9844 60.353 24.4496 60.6477 24.6909C60.9428 24.9316 61.254 25.0522 61.583 25.0522C62.1752 25.0522 62.593 24.7527 62.8356 24.154ZM62.7961 22.7657C62.79 22.51 62.7468 22.2826 62.6671 22.0838C62.5871 21.8853 62.4522 21.716 62.2618 21.5759C62.0715 21.4361 61.8424 21.3662 61.5753 21.3662C61.2159 21.3662 60.9111 21.4924 60.6607 21.7455C60.4106 21.9985 60.2699 22.3381 60.2395 22.7654H62.7961V22.7657Z" fill="black"/>
<path fill-rule="evenodd" clip-rule="evenodd" d="M62.8356 24.154L63.5112 24.2897C63.3886 24.6796 63.1486 25.0028 62.7924 25.2582C62.4362 25.5139 62.0165 25.6417 61.5342 25.6417C60.898 25.6417 60.3834 25.4226 59.9902 24.9838C59.5969 24.5456 59.4004 23.9701 59.4004 23.2587C59.4004 22.5322 59.6046 21.9453 60.0136 21.4976C60.4221 21.05 60.9354 20.8262 61.5531 20.8262C62.161 20.8262 62.6508 21.0323 63.0209 21.4444C63.3915 21.8566 63.5808 22.4733 63.5902 23.2945H60.2056C60.2056 23.9844 60.353 24.4496 60.6477 24.6909C60.9428 24.9316 61.254 25.0522 61.583 25.0522C62.1752 25.0522 62.593 24.7527 62.8356 24.154ZM62.7961 22.7657C62.79 22.51 62.7468 22.2826 62.6671 22.0838C62.5871 21.8853 62.4522 21.716 62.2618 21.5759C62.0715 21.4361 61.8424 21.3662 61.5753 21.3662C61.2159 21.3662 60.9111 21.4924 60.6607 21.7455C60.4106 21.9985 60.2699 22.3381 60.2395 22.7654H62.7961V22.7657Z" fill="black"/>
<path fill-rule="evenodd" clip-rule="evenodd" d="M64.002 24.3327L64.6952 24.1926C64.8487 24.7657 65.3351 25.0522 66.1539 25.0522C66.4557 25.0522 66.7111 24.9862 66.9204 24.8539C67.1297 24.7219 67.2345 24.5356 67.2345 24.2954C67.2345 23.938 66.9681 23.7113 66.4352 23.6153L65.4532 23.4325C65.0684 23.3602 64.7626 23.2185 64.5349 23.0078C64.3075 22.797 64.1937 22.5184 64.1937 22.172C64.1937 21.7898 64.3486 21.4697 64.6594 21.2122C64.9698 20.9548 65.3879 20.8262 65.9139 20.8262C66.9255 20.8262 67.5496 21.213 67.7864 21.9865L67.122 22.1263C66.9313 21.6526 66.5397 21.4155 65.9467 21.4155C65.6515 21.4155 65.4095 21.4749 65.2207 21.5931C65.0314 21.7115 64.937 21.8769 64.937 22.0898C64.937 22.425 65.1786 22.636 65.6617 22.7232L66.5693 22.8867C67.5195 23.0552 67.9949 23.5065 67.9949 24.2393C67.9949 24.6582 67.8181 24.9971 67.464 25.2546C67.1102 25.5128 66.6391 25.6417 66.0515 25.6417C64.9469 25.6417 64.2635 25.2053 64.002 24.3327Z" fill="black"/>
<path fill-rule="evenodd" clip-rule="evenodd" d="M64.002 24.3327L64.6952 24.1926C64.8487 24.7657 65.3351 25.0522 66.1539 25.0522C66.4557 25.0522 66.7111 24.9862 66.9204 24.8539C67.1297 24.7219 67.2345 24.5356 67.2345 24.2954C67.2345 23.938 66.9681 23.7113 66.4352 23.6153L65.4532 23.4325C65.0684 23.3602 64.7626 23.2185 64.5349 23.0078C64.3075 22.797 64.1937 22.5184 64.1937 22.172C64.1937 21.7898 64.3486 21.4697 64.6594 21.2122C64.9698 20.9548 65.3879 20.8262 65.9139 20.8262C66.9255 20.8262 67.5496 21.213 67.7864 21.9865L67.122 22.1263C66.9313 21.6526 66.5397 21.4155 65.9467 21.4155C65.6515 21.4155 65.4095 21.4749 65.2207 21.5931C65.0314 21.7115 64.937 21.8769 64.937 22.0898C64.937 22.425 65.1786 22.636 65.6617 22.7232L66.5693 22.8867C67.5195 23.0552 67.9949 23.5065 67.9949 24.2393C67.9949 24.6582 67.8181 24.9971 67.464 25.2546C67.1102 25.5128 66.6391 25.6417 66.0515 25.6417C64.9469 25.6417 64.2635 25.2053 64.002 24.3327Z" fill="black"/>
<path fill-rule="evenodd" clip-rule="evenodd" d="M47.6279 11.2025V10.1068C47.6269 10.0701 47.6335 10.0335 47.6475 9.99938C47.6614 9.96524 47.6823 9.93422 47.7088 9.90823C47.7354 9.88223 47.7671 9.86181 47.802 9.84819C47.8369 9.83457 47.8743 9.82805 47.9118 9.82901L52.9318 9.82849C53.0926 9.82849 53.2214 9.94275 53.2216 10.105L53.2214 11.0452C53.22 11.2027 53.0843 11.4085 52.8433 11.7349L50.2432 15.3674C51.2084 15.3452 52.2295 15.4866 53.1065 15.9689C53.3043 16.0774 53.3571 16.2387 53.3726 16.3967V17.5659C53.3726 17.7271 53.1926 17.9134 53.003 17.8164C51.4579 17.0246 49.4073 16.9378 47.699 17.826C47.5244 17.9173 47.3418 17.7334 47.3418 17.5722V16.4607C47.3418 16.2827 47.345 15.9786 47.5284 15.7073L50.5413 11.4787L47.9179 11.4784C47.7577 11.4784 47.6292 11.3663 47.6281 11.2025H47.6279ZM29.6627 18.0467H28.1352C27.9898 18.0376 27.8739 17.9306 27.8621 17.7944L27.8632 10.1251C27.8632 9.97197 27.9952 9.8491 28.1578 9.8491L29.58 9.84884C29.729 9.85614 29.8485 9.96623 29.8578 10.1063V11.1078H29.8866C30.2572 10.1394 30.9558 9.68737 31.8964 9.68737C32.8518 9.68737 33.4503 10.1394 33.8783 11.1078C34.2489 10.1394 35.0898 9.68737 35.9881 9.68737C36.6296 9.68737 37.3281 9.94562 37.7558 10.5266C38.2405 11.1719 38.1408 12.1082 38.1408 12.9312L38.1397 17.7707C38.1397 17.9241 38.0077 18.047 37.8451 18.047H36.3197C36.1664 18.0373 36.0454 17.9184 36.0454 17.7715V13.7057C36.0454 13.383 36.0737 12.5762 36.0022 12.2696C35.8881 11.7531 35.5463 11.6078 35.1042 11.6078C34.7336 11.6078 34.3486 11.8499 34.1918 12.2373C34.0348 12.6247 34.0492 13.27 34.0492 13.7059V17.7707C34.0492 17.9241 33.9172 18.047 33.7548 18.047H32.2292C32.0759 18.0373 31.9551 17.9184 31.9551 17.7715L31.9535 13.7057C31.9535 12.8506 32.0961 11.5917 31.0128 11.5917C29.9149 11.5917 29.9578 12.8182 29.9578 13.7057L29.957 17.7707C29.957 17.9241 29.8253 18.047 29.6627 18.047V18.0467ZM56.9093 9.68737C59.1581 9.68737 60.3744 11.5917 60.3744 14.0125C60.3744 16.3524 59.0309 18.2084 56.9093 18.2084C54.703 18.2084 53.5008 16.3041 53.5008 13.9319C53.5008 11.5431 54.7174 9.68763 56.9093 9.68763V9.68737ZM56.9235 11.4503C55.806 11.4503 55.7354 12.951 55.7354 13.887C55.7354 14.823 55.7213 16.6268 56.9093 16.6268C58.0833 16.6268 58.1398 15.2103 58.1398 14.2261C58.1398 13.5805 58.1118 12.8057 57.9137 12.1927C57.7436 11.66 57.4045 11.4503 56.9235 11.4503ZM63.6288 18.0467H62.1075C61.9544 18.0373 61.8334 17.9184 61.8334 17.7715L61.8307 10.0995C61.8438 9.95918 61.9704 9.8491 62.1243 9.8491L63.5408 9.84884C63.6742 9.85536 63.7843 9.94458 63.8123 10.0635V11.2366H63.8411C64.2687 10.1877 64.8673 9.68737 65.9223 9.68737C66.6065 9.68737 67.2768 9.92945 67.7045 10.5913C68.1036 11.2043 68.1036 12.2373 68.1036 12.9797V17.8051C68.0865 17.9413 67.962 18.047 67.8111 18.047H66.2799C66.1386 18.0378 66.0245 17.9364 66.0079 17.8051V13.6413C66.0079 12.8021 66.1079 11.5755 65.0529 11.5755C64.6817 11.5755 64.3399 11.8176 64.169 12.1888C63.9552 12.6568 63.9264 13.1247 63.9264 13.6413V17.7707C63.9237 17.9241 63.7917 18.047 63.6288 18.047V18.0467ZM43.7991 14.3845C43.7991 14.967 43.8135 15.4519 43.5138 15.9695C43.2707 16.3902 42.8849 16.6487 42.4561 16.6487C41.8706 16.6487 41.5277 16.2121 41.5277 15.5651C41.5277 14.2926 42.6945 14.061 43.7994 14.061V14.3845H43.7991ZM45.3391 18.0277C45.2378 18.1163 45.0922 18.1223 44.9781 18.0626C44.471 17.6499 44.3801 17.4592 44.1028 17.0666C43.2643 17.9024 42.6708 18.1529 41.5848 18.1529C40.2991 18.1529 39.299 17.3765 39.299 15.8239C39.299 14.6109 39.9704 13.786 40.9276 13.3817C41.7562 13.0259 42.9137 12.9612 43.7991 12.8641V12.6701C43.7991 12.3142 43.8279 11.8937 43.6135 11.5864C43.428 11.3115 43.0707 11.1983 42.7563 11.1983C42.1738 11.1983 41.656 11.4904 41.5288 12.0956C41.5024 12.2303 41.4019 12.3633 41.2635 12.3701L39.7832 12.2136C39.6582 12.1859 39.5192 12.0878 39.5552 11.9013C39.8955 10.1441 41.5173 9.61328 42.9707 9.61328C43.7135 9.61328 44.6851 9.80736 45.2709 10.3573C46.0137 11.0365 45.9422 11.9423 45.9422 12.9288V15.2568C45.9422 15.9569 46.2398 16.2642 46.519 16.6417C46.6163 16.7773 46.6384 16.9391 46.5136 17.0385C46.2017 17.2941 45.6476 17.7655 45.3426 18.031L45.3391 18.0277ZM23.9515 14.3845C23.9515 14.967 23.9659 15.4519 23.666 15.9695C23.4231 16.3902 23.0373 16.6487 22.6085 16.6487C22.0228 16.6487 21.6802 16.2121 21.6802 15.5651C21.6802 14.2926 22.8469 14.061 23.9515 14.061V14.3845ZM25.4916 18.0277C25.3902 18.1163 25.2444 18.1223 25.1306 18.0626C24.6232 17.6499 24.5322 17.4592 24.255 17.0666C23.4167 17.9024 22.8229 18.1529 21.7372 18.1529C20.4513 18.1529 19.4512 17.3765 19.4512 15.8239C19.4512 14.6109 20.1225 13.786 21.08 13.3817C21.9087 13.0259 23.0661 12.9612 23.9515 12.8641V12.6701C23.9515 12.3142 23.9801 11.8937 23.766 11.5864C23.5801 11.3115 23.2229 11.1983 22.9088 11.1983C22.3262 11.1983 21.8081 11.4904 21.681 12.0956C21.6546 12.2303 21.5543 12.3633 21.4157 12.3701L19.9356 12.2136C19.8106 12.1859 19.6717 12.0878 19.7077 11.9013C20.0479 10.1441 21.6695 9.61328 23.1231 9.61328C23.866 9.61328 24.8375 9.80736 25.4233 10.3573C26.1661 11.0365 26.0947 11.9423 26.0947 12.9288V15.2568C26.0947 15.9569 26.392 16.2642 26.6711 16.6417C26.7687 16.7773 26.7906 16.9391 26.6663 17.0385C26.3544 17.2941 25.7998 17.7655 25.495 18.031L25.4916 18.0277Z" fill="black"/>
</g>
<defs>
<clipPath id="clip0">
<rect width="68" height="26" fill="white"/>
</clipPath>
</defs>
</svg>
