<svg width="56" height="57" viewBox="0 0 56 57" fill="none" xmlns="http://www.w3.org/2000/svg">
<path d="M48.9322 46.8264C25.4539 58.0001 10.8831 48.6514 1.55577 42.9732C0.978596 42.6153 -0.00238991 43.0569 0.84875 44.0345C3.95614 47.8023 14.1397 56.8837 27.4322 56.8837C40.7339 56.8837 48.6471 49.6257 49.637 48.3596C50.6202 47.1042 49.9257 46.4117 48.932 46.8264H48.9322ZM55.5261 43.1849C54.8956 42.3639 51.6923 42.2109 49.6763 42.4585C47.6572 42.699 44.6266 43.933 44.8901 44.6739C45.0253 44.9515 45.3012 44.827 46.6883 44.7023C48.0791 44.5635 51.9754 44.0718 52.7873 45.1331C53.6029 46.2017 51.5446 51.2925 51.1686 52.1135C50.8054 52.9345 51.3074 53.1463 51.9897 52.5994C52.6625 52.0528 53.8807 50.6372 54.6981 48.634C55.51 46.6198 56.0051 43.8101 55.5258 43.1849H55.5261Z" fill="#FF9900"/>
<path fill-rule="evenodd" clip-rule="evenodd" d="M33.1469 24.0265C33.1469 26.9583 33.221 29.4033 31.7391 32.0069C30.5431 34.1239 28.6485 35.4257 26.5317 35.4257C23.642 35.4257 21.9592 33.2241 21.9592 29.9749C21.9592 23.5606 27.7063 22.3965 33.1469 22.3965V24.0265ZM40.7358 42.3691C40.2383 42.8136 39.5185 42.8455 38.9577 42.549C36.4598 40.4745 36.0151 39.5114 34.6393 37.532C30.5114 41.7447 27.5901 43.0041 22.2345 43.0041C15.905 43.0041 10.9727 39.0984 10.9727 31.2767C10.9727 25.1696 14.2857 21.0099 18.9955 18.9779C23.0812 17.1783 28.7861 16.8608 33.1469 16.3635V15.3897C33.1469 13.6008 33.2844 11.484 32.2367 9.93882C31.3157 8.55223 29.5588 7.98064 28.0133 7.98064C25.1451 7.98064 22.5836 9.45178 21.9592 12.5C21.832 13.1776 21.3347 13.8445 20.6574 13.8761L13.3541 13.0931C12.7403 12.9552 12.063 12.4579 12.2323 11.5157C13.9152 2.66743 21.9061 0 29.061 0C32.7232 0 37.5073 0.973847 40.3969 3.74702C44.0591 7.16564 43.7098 11.7274 43.7098 16.6915V28.4189C43.7098 31.9435 45.1704 33.4887 46.5463 35.394C47.0331 36.0714 47.1391 36.8866 46.5251 37.3944C44.9904 38.675 42.2596 41.0566 40.7568 42.3903L40.7356 42.3691" fill="black"/>
<path d="M48.9322 46.8264C25.4539 58.0001 10.8831 48.6514 1.55577 42.9732C0.978596 42.6153 -0.00238991 43.0569 0.84875 44.0345C3.95614 47.8023 14.1397 56.8837 27.4322 56.8837C40.7339 56.8837 48.6471 49.6257 49.637 48.3596C50.6202 47.1042 49.9257 46.4117 48.932 46.8264H48.9322ZM55.5261 43.1849C54.8956 42.3639 51.6923 42.2109 49.6763 42.4585C47.6572 42.699 44.6266 43.933 44.8901 44.6739C45.0253 44.9515 45.3012 44.827 46.6883 44.7023C48.0791 44.5635 51.9754 44.0718 52.7873 45.1331C53.6029 46.2017 51.5446 51.2925 51.1686 52.1135C50.8054 52.9345 51.3074 53.1463 51.9897 52.5994C52.6625 52.0528 53.8807 50.6372 54.6981 48.634C55.51 46.6198 56.0051 43.8101 55.5258 43.1849H55.5261Z" fill="#FF9900"/>
<path fill-rule="evenodd" clip-rule="evenodd" d="M33.1469 24.0265C33.1469 26.9583 33.221 29.4033 31.7391 32.0069C30.5431 34.1239 28.6485 35.4257 26.5317 35.4257C23.642 35.4257 21.9592 33.2241 21.9592 29.9749C21.9592 23.5606 27.7063 22.3965 33.1469 22.3965V24.0265ZM40.7358 42.3691C40.2383 42.8136 39.5185 42.8455 38.9577 42.549C36.4598 40.4745 36.0151 39.5114 34.6393 37.532C30.5114 41.7447 27.5901 43.0041 22.2345 43.0041C15.905 43.0041 10.9727 39.0984 10.9727 31.2767C10.9727 25.1696 14.2857 21.0099 18.9955 18.9779C23.0812 17.1783 28.7861 16.8608 33.1469 16.3635V15.3897C33.1469 13.6008 33.2844 11.484 32.2367 9.93882C31.3157 8.55223 29.5588 7.98064 28.0133 7.98064C25.1451 7.98064 22.5836 9.45178 21.9592 12.5C21.832 13.1776 21.3347 13.8445 20.6574 13.8761L13.3541 13.0931C12.7403 12.9552 12.063 12.4579 12.2323 11.5157C13.9152 2.66743 21.9061 0 29.061 0C32.7232 0 37.5073 0.973847 40.3969 3.74702C44.0591 7.16564 43.7098 11.7274 43.7098 16.6915V28.4189C43.7098 31.9435 45.1704 33.4887 46.5463 35.394C47.0331 36.0714 47.1391 36.8866 46.5251 37.3944C44.9904 38.675 42.2596 41.0566 40.7568 42.3903L40.7356 42.3691" fill="black"/>
</svg>
