<svg width="63" height="50" viewBox="0 0 63 50" fill="none" xmlns="http://www.w3.org/2000/svg">
<path d="M18.3808 32.1672L12.6092 34.6172L17.9544 36.8761L24.1523 34.6172L18.3808 32.1672ZM9.70355 35.2297L9.51016 46.2547L17.9543 49.9297V38.4834L9.70355 35.2297ZM27.0579 35.2297L19.4269 38.1011V48.8959L27.0579 45.8334V35.2297ZM36.1615 0.929688L30.3502 3.37974L35.735 5.63863L41.933 3.37974L36.1615 0.929688ZM28.1041 4.18456V15.2095L35.3087 17.2773L35.5417 7.247L28.1041 4.18456ZM44.2189 4.797L37.4011 7.66844V18.5024L44.219 15.4399V4.797H44.2189ZM8.87055 16.4468L3.09898 18.8968L8.44414 21.1557L14.6421 18.8968L8.87055 16.4468ZM0.19339 19.5093L0 30.5343L8.44414 34.2093V22.7629L0.19339 19.5093ZM17.5478 19.5093L9.91681 22.3807V33.1754L17.5478 30.1129V19.5093ZM27.4645 16.0401L21.6929 18.4901L27.0381 20.749L33.2361 18.4901L27.4645 16.0401ZM18.7873 19.1026L18.5939 30.1276L27.038 33.8026V22.3574L18.7873 19.1026ZM36.1417 19.1026L28.5107 21.974V32.7687L36.1417 29.7062V19.1026ZM54.3228 0.929688L48.5513 3.37968L53.8965 5.63857L60.0944 3.37968L54.3228 0.929688ZM45.6456 3.99218L45.4523 15.0172L53.8964 18.6922V7.247L45.6456 3.99218ZM63 3.99218L55.369 6.86357V17.6583L63 14.5958V3.99218Z" fill="#F7A80D"/>
</svg>
