<svg width="64" height="58" viewBox="0 0 64 58" fill="none" xmlns="http://www.w3.org/2000/svg">
<path d="M2.30168 0.384936C2.00464 0.381079 1.71035 0.442577 1.43949 0.565112C1.16863 0.687647 0.927772 0.868247 0.733822 1.09423C0.539872 1.32021 0.397536 1.58609 0.316812 1.87321C0.236087 2.16032 0.218931 2.4617 0.266548 2.75618L8.90607 55.4272C9.01368 56.0718 9.34402 56.6577 9.83904 57.0819C10.3341 57.5062 10.9621 57.7417 11.6129 57.7471H53.06C53.5477 57.7534 54.0215 57.5835 54.395 57.2683C54.7685 56.9532 55.0168 56.5138 55.0948 56.0302L63.7346 2.7664C63.7822 2.47193 63.7649 2.17059 63.6842 1.88352C63.6034 1.59645 63.461 1.33062 63.267 1.10469C63.0731 0.878759 62.8322 0.698211 62.5614 0.575721C62.2905 0.453232 61.9962 0.39177 61.6992 0.395651L2.30168 0.384936ZM38.681 38.4525H25.4521L21.8702 19.6589H41.8866L38.681 38.4525Z" fill="#2684FF"/>
<path d="M60.9342 19.6328H41.8493L38.6462 38.4114H25.428L9.82031 57.0163C10.315 57.4459 10.9457 57.6847 11.5996 57.6901H53.0239C53.5113 57.6964 53.9848 57.5267 54.358 57.2119C54.7313 56.897 54.9795 56.458 55.0575 55.9748L60.9342 19.6328Z" fill="url(#paint0_linear)"/>
<defs>
<linearGradient id="paint0_linear" x1="65.3468" y1="24.8916" x2="43.175" y2="56.2392" gradientUnits="userSpaceOnUse">
<stop offset="0.18" stop-color="#0052CC"/>
<stop offset="1" stop-color="#2684FF"/>
</linearGradient>
</defs>
</svg>
