<svg width="58" height="58" viewBox="0 0 58 58" fill="none" xmlns="http://www.w3.org/2000/svg">
<path d="M0 50.5214C0 54.6521 3.34837 58 7.4786 58H50.5212C54.6521 58 58 54.6516 58 50.5214V7.47883C58 3.34791 54.6516 0 50.5214 0H7.47883C3.34791 0 0 3.34837 0 7.4786V50.5212V50.5214Z" fill="#563D7C"/>
<path d="M24.052 25.6555V17.4419H31.2818C31.9706 17.4419 32.6344 17.4992 33.2738 17.6141C33.9131 17.7287 34.4789 17.9336 34.9707 18.2288C35.4624 18.524 35.8559 18.9338 36.1511 19.4583C36.4461 19.983 36.5938 20.6553 36.5938 21.4747C36.5938 22.9503 36.1511 24.0161 35.2657 24.6718C34.3805 25.3276 33.2493 25.6555 31.872 25.6555H24.052ZM16.3301 11.4414V46.5586H33.3476C34.9216 46.5586 36.4545 46.3619 37.9464 45.9684C39.4383 45.5749 40.7662 44.9684 41.9303 44.1487C43.0941 43.3289 44.0206 42.2713 44.7091 40.9763C45.3978 39.6811 45.742 38.1481 45.742 36.3776C45.742 34.1806 45.2091 32.3035 44.1436 30.7461C43.0778 29.1885 41.4629 28.0983 39.2988 27.4752C40.8727 26.7212 42.0615 25.7538 42.8649 24.5734C43.668 23.393 44.0697 21.9177 44.0697 20.1468C44.0697 18.5074 43.7992 17.1304 43.2582 16.0155C42.7171 14.9008 41.9548 14.0072 40.971 13.335C39.9875 12.6628 38.8071 12.1791 37.4298 11.8841C36.0528 11.5889 34.528 11.4414 32.8558 11.4414H16.3301ZM24.052 40.5581V30.9181H32.4622C34.1345 30.9181 35.4789 31.3032 36.4955 32.074C37.5119 32.8445 38.0203 34.1314 38.0203 35.9349C38.0203 36.8531 37.8644 37.6071 37.5529 38.1973C37.2413 38.7875 36.8233 39.2549 36.2986 39.599C35.7741 39.9434 35.1674 40.1892 34.4789 40.337C33.7901 40.4842 33.069 40.5581 32.3147 40.5581H24.052Z" fill="white"/>
</svg>
