<svg width="44" height="64" viewBox="0 0 44 64" fill="none" xmlns="http://www.w3.org/2000/svg">
<g clip-path="url(#clip0)">
<path d="M34.4786 3.29472H30.8289L34.6252 7.47513V9.46329H26.8041V7.13495H30.6004L26.8041 2.95454V0.963867H34.4811L34.4786 3.29472ZM25.2513 3.29472H21.5966L25.3979 7.47513V9.46329H17.5743V7.13495H21.3706L17.5743 2.95454V0.963867H25.2513V3.29472ZM16.1134 3.39047H12.1755V7.0392H16.1134V9.46581H9.37305V0.963867H16.1134V3.39047Z" fill="#131313"/>
<path d="M4.00497 58.8979L0 13.3467H44L39.9901 58.8903L21.9727 63.9552L4.00497 58.8979Z" fill="#1572B6"/>
<path d="M22 60.084L36.559 55.9893L39.9826 17.0703H22V60.084Z" fill="#33A9DC"/>
<path d="M22 33.5725H29.2894L29.7913 27.8525H22V22.2686H35.8137L35.682 23.7679L34.3279 39.1641H22V33.5725Z" fill="white"/>
<path d="M22.0301 48.0821H22.0053L15.8711 46.4014L15.4786 41.9463H9.95312L10.7258 50.7178L22.0103 53.9029H22.0426V48.0821H22.0301Z" fill="#EBEBEB"/>
<path d="M28.8231 38.9205L28.1597 46.3969L22.0156 48.0776V53.8984L33.3076 50.7234L33.3895 49.7785L34.3485 38.918H28.8231V38.9205Z" fill="white"/>
<path d="M22.0194 22.2686V27.855H8.7176L8.60331 26.6002L8.35238 23.7679L8.2207 22.2686H22.0194ZM21.9996 33.5725V39.159H15.935L15.8281 37.9041L15.5772 35.0718L15.4455 33.5725H21.9971H21.9996Z" fill="#EBEBEB"/>
</g>
<defs>
<clipPath id="clip0">
<rect width="44" height="62.991" fill="white" transform="translate(0 0.963867)"/>
</clipPath>
</defs>
</svg>
