<svg width="61" height="47" viewBox="0 0 61 47" fill="none" xmlns="http://www.w3.org/2000/svg">
<path d="M30.501 31.1677V25.2745C36.7389 25.2745 41.581 19.0883 39.1858 12.5231C38.307 10.1106 36.3598 8.16345 33.9301 7.28464C27.3649 4.90667 21.1787 9.73153 21.1787 15.9694H15.3027C15.3027 6.02673 24.918 -1.72751 35.3431 1.52927C39.8923 2.95949 43.5282 6.57814 44.9411 11.1273C48.1979 21.5524 40.4437 31.1677 30.501 31.1677Z" fill="#0080FF"/>
<path fill-rule="evenodd" clip-rule="evenodd" d="M30.5186 25.3086H24.6426V19.4326H30.5186V25.3086Z" fill="#0080FF"/>
<path fill-rule="evenodd" clip-rule="evenodd" d="M24.642 29.8061H20.1445V25.3086H24.642V29.8061Z" fill="#0080FF"/>
<path fill-rule="evenodd" clip-rule="evenodd" d="M20.1448 25.3089H16.3711V21.5352H20.1448V25.3089Z" fill="#0080FF"/>
<path d="M5.37709 37.1296C4.6189 36.5954 3.65393 36.3369 2.5511 36.3369H0.138672V44.005H2.56833C3.67116 44.005 4.63613 43.7293 5.39432 43.1606C5.80788 42.8677 6.13528 42.4541 6.37653 41.9372C6.60054 41.4202 6.72116 40.7999 6.72116 40.1279C6.72116 39.4558 6.60054 38.8527 6.37653 38.3358C6.13528 37.8188 5.80788 37.4053 5.37709 37.1296ZM1.55167 37.6293H2.30986C3.15421 37.6293 3.84347 37.8016 4.37766 38.129C4.96353 38.4909 5.25647 39.1629 5.25647 40.1279C5.25647 41.1273 4.96353 41.8338 4.37766 42.2129C3.87794 42.5403 3.18867 42.7126 2.32709 42.7126H1.55167V37.6293Z" fill="#0080FF"/>
<path d="M8.39318 36.2334C8.15194 36.2334 7.96239 36.3196 7.79007 36.4746C7.63499 36.6297 7.54883 36.8193 7.54883 37.0605C7.54883 37.3018 7.63499 37.4913 7.79007 37.6636C7.94516 37.8187 8.15194 37.9049 8.39318 37.9049C8.61719 37.9049 8.82397 37.8187 8.99628 37.6636C9.15137 37.5085 9.23753 37.3018 9.23753 37.0605C9.23753 36.8193 9.15137 36.6297 8.99628 36.4746C8.82397 36.3196 8.61719 36.2334 8.39318 36.2334Z" fill="#0080FF"/>
<path d="M9.06442 38.5947H7.70312V44.0055H9.06442V38.5947Z" fill="#0080FF"/>
<path d="M14.0102 39.0429C13.5966 38.681 13.1486 38.457 12.6489 38.457C11.8907 38.457 11.2703 38.7155 10.7878 39.2325C10.3053 39.7322 10.0469 40.387 10.0469 41.1796C10.0469 41.9378 10.2881 42.5926 10.7706 43.1096C11.2531 43.6093 11.8907 43.8678 12.6316 43.8678C13.1486 43.8678 13.6138 43.7299 13.9757 43.437V43.5576C13.9757 44.0056 13.8551 44.3503 13.6138 44.5915C13.3726 44.8327 13.0452 44.9534 12.6316 44.9534C12.0113 44.9534 11.615 44.7121 11.1325 44.0573L10.202 44.9534L10.2192 44.9878C10.426 45.2635 10.7189 45.5392 11.1325 45.7977C11.5288 46.0562 12.0457 46.194 12.6489 46.194C13.4587 46.194 14.1135 45.9528 14.596 45.4531C15.0785 44.9534 15.3198 44.2986 15.3198 43.4887V38.5777H13.9757V39.0429H14.0102ZM13.6483 42.248C13.407 42.5237 13.0969 42.6443 12.7178 42.6443C12.3215 42.6443 12.0285 42.5065 11.7873 42.248C11.546 41.9723 11.4426 41.6277 11.4426 41.1969C11.4426 40.7488 11.5633 40.4042 11.7873 40.1285C12.0113 39.8528 12.3387 39.7322 12.7178 39.7322C13.1141 39.7322 13.407 39.87 13.6483 40.1285C13.8895 40.4042 14.0102 40.7661 14.0102 41.1969C14.0102 41.6277 13.8895 41.9723 13.6483 42.248Z" fill="#0080FF"/>
<path d="M17.8691 38.5947H16.5078V44.0055H17.8691V38.5947Z" fill="#0080FF"/>
<path d="M17.1979 36.2334C16.9566 36.2334 16.7671 36.3196 16.5948 36.4746C16.4397 36.6297 16.3535 36.8193 16.3535 37.0605C16.3535 37.3018 16.4397 37.4913 16.5948 37.6636C16.7498 37.8187 16.9566 37.9049 17.1979 37.9049C17.4219 37.9049 17.6287 37.8187 17.801 37.6636C17.9561 37.5085 18.0422 37.3018 18.0422 37.0605C18.0422 36.8193 17.9561 36.6297 17.801 36.4746C17.6287 36.3196 17.4391 36.2334 17.1979 36.2334Z" fill="#0080FF"/>
<path d="M20.8519 37.1299H19.5078V38.5946H18.7324V39.8352H19.5078V42.0754C19.5078 42.7819 19.6457 43.2816 19.9214 43.5745C20.1971 43.8675 20.6968 44.0053 21.3861 44.0053C21.6101 44.0053 21.8341 44.0053 22.0409 43.9881H22.1098V42.7474L21.6446 42.7646C21.3172 42.7646 21.1104 42.7129 21.007 42.5923C20.9036 42.4717 20.8519 42.2304 20.8519 41.8686V39.818H22.1271V38.5773H20.8519V37.1299Z" fill="#0080FF"/>
<path d="M29.8633 36.3193H28.502V44.0046H29.8633V36.3193Z" fill="#0080FF"/>
<path d="M43.6138 42.0754C43.3725 42.3511 43.114 42.5923 42.9245 42.713C42.7349 42.8336 42.4937 42.9025 42.218 42.9025C41.8217 42.9025 41.4943 42.7647 41.2358 42.4545C40.9773 42.1616 40.8395 41.7652 40.8395 41.3172C40.8395 40.8519 40.9773 40.4728 41.2358 40.1799C41.4943 39.887 41.8217 39.7319 42.218 39.7319C42.6488 39.7319 43.114 40.0076 43.5104 40.4729L44.4064 39.6113C43.8205 38.8531 43.0796 38.4912 42.1835 38.4912C41.4426 38.4912 40.7878 38.7669 40.2536 39.3011C39.7194 39.8353 39.4609 40.5073 39.4609 41.3172C39.4609 42.1271 39.7366 42.7991 40.2536 43.3333C40.7878 43.8675 41.4253 44.1432 42.1835 44.1432C43.1657 44.1432 43.9584 43.7124 44.5098 42.937L43.6138 42.0754Z" fill="#0080FF"/>
<path d="M49.2156 39.3524C49.0261 39.0767 48.7676 38.87 48.4402 38.7149C48.1128 38.5598 47.7337 38.4736 47.3202 38.4736C46.562 38.4736 45.9416 38.7493 45.4764 39.3008C45.0284 39.8522 44.7871 40.5242 44.7871 41.3341C44.7871 42.1612 45.0456 42.8332 45.5281 43.3502C46.0278 43.8671 46.6826 44.1256 47.4925 44.1256C48.4058 44.1256 49.1639 43.7465 49.7326 43.0228L49.7671 42.9883L48.871 42.1267C48.7849 42.2301 48.6642 42.3335 48.5608 42.4369C48.423 42.5575 48.3024 42.6609 48.1645 42.7298C47.9577 42.8332 47.7337 42.8849 47.4752 42.8849C47.0961 42.8849 46.786 42.7815 46.5447 42.5575C46.3207 42.3508 46.1829 42.075 46.1484 41.7304H49.7498L49.7671 41.2307C49.7671 40.8861 49.7154 40.5414 49.6292 40.2313C49.543 39.9211 49.4052 39.6282 49.2156 39.3524ZM46.2346 40.6276C46.3035 40.3691 46.4241 40.1451 46.5964 39.99C46.786 39.8005 47.0272 39.7143 47.3029 39.7143C47.6303 39.7143 47.8888 39.8005 48.0611 39.99C48.2162 40.1623 48.3196 40.3691 48.3368 40.6276H46.2346Z" fill="#0080FF"/>
<path d="M54.4359 39.0078C54.0224 38.6632 53.4537 38.4736 52.7472 38.4736C52.2992 38.4736 51.8684 38.577 51.4893 38.7666C51.1275 38.9389 50.7828 39.2491 50.5588 39.6282L50.576 39.6454L51.4549 40.4725C51.8167 39.9039 52.2131 39.6971 52.7472 39.6971C53.0402 39.6971 53.2642 39.766 53.4537 39.9211C53.626 40.0762 53.7294 40.2657 53.7294 40.507V40.7654C53.3848 40.6621 53.0574 40.6104 52.73 40.6104C52.058 40.6104 51.5066 40.7654 51.093 41.0756C50.6794 41.3858 50.4727 41.851 50.4727 42.4369C50.4727 42.9539 50.645 43.3502 51.0068 43.6604C51.3687 43.9533 51.7995 44.1084 52.3164 44.1084C52.8334 44.1084 53.3159 43.9016 53.7639 43.5397V43.9878H55.108V40.507C55.0563 39.8694 54.8495 39.3524 54.4359 39.0078ZM52.0235 41.9372C52.1786 41.8338 52.4026 41.7821 52.6783 41.7821C53.0057 41.7821 53.3503 41.851 53.7122 41.9717V42.5058C53.4193 42.7815 53.0229 42.9194 52.5405 42.9194C52.2992 42.9194 52.1269 42.8677 51.989 42.7643C51.8684 42.6609 51.7995 42.5403 51.7995 42.368C51.7995 42.1784 51.8684 42.0406 52.0235 41.9372Z" fill="#0080FF"/>
<path d="M60.294 39.1112C59.9149 38.6804 59.3807 38.4736 58.7087 38.4736C58.1745 38.4736 57.7265 38.6287 57.3991 38.9389V38.6115H56.0723V44.005H57.4336V41.0239C57.4336 40.6104 57.537 40.283 57.7265 40.0589C57.9161 39.8349 58.1745 39.7143 58.5364 39.7143C58.8466 39.7143 59.0706 39.8177 59.2429 40.0245C59.4152 40.2313 59.5014 40.5242 59.5014 40.8688V44.005H60.8627V40.8688C60.8627 40.1279 60.6731 39.5248 60.294 39.1112Z" fill="#0080FF"/>
<path d="M26.7973 39.0078C26.3837 38.6632 25.8151 38.4736 25.1086 38.4736C24.6605 38.4736 24.2297 38.577 23.8506 38.7666C23.4888 38.9389 23.1442 39.2491 22.9201 39.6282L22.9374 39.6454L23.8162 40.4725C24.1781 39.9039 24.5744 39.6971 25.1086 39.6971C25.4015 39.6971 25.6255 39.766 25.8151 39.9211C25.9874 40.0762 26.0908 40.2657 26.0908 40.507V40.7654C25.7461 40.6621 25.4187 40.6104 25.0913 40.6104C24.4193 40.6104 23.8679 40.7654 23.4543 41.0756C23.0408 41.3858 22.834 41.851 22.834 42.4369C22.834 42.9539 23.0063 43.3502 23.3682 43.6604C23.73 43.9533 24.1608 44.1084 24.6778 44.1084C25.1947 44.1084 25.6772 43.9016 26.1252 43.5397V43.9878H27.4693V40.507C27.4176 39.8694 27.2108 39.3524 26.7973 39.0078ZM24.3848 41.9372C24.5399 41.8338 24.7639 41.7821 25.0396 41.7821C25.367 41.7821 25.7117 41.851 26.0735 41.9717V42.5058C25.7806 42.7815 25.3843 42.9194 24.9018 42.9194C24.6605 42.9194 24.4882 42.8677 24.3504 42.7643C24.2297 42.6609 24.1608 42.5403 24.1608 42.368C24.1608 42.1784 24.2297 42.0406 24.3848 41.9372Z" fill="#0080FF"/>
<path d="M34.809 44.1258C32.6206 44.1258 30.8457 42.3509 30.8457 40.1625C30.8457 37.9741 32.6206 36.1992 34.809 36.1992C36.9974 36.1992 38.7723 37.9741 38.7723 40.1625C38.7723 42.3509 36.9974 44.1258 34.809 44.1258ZM34.809 37.595C33.396 37.595 32.2415 38.7495 32.2415 40.1625C32.2415 41.5755 33.396 42.73 34.809 42.73C36.222 42.73 37.3765 41.5755 37.3765 40.1625C37.3765 38.7495 36.222 37.595 34.809 37.595Z" fill="#0080FF"/>
</svg>
