<svg width="57" height="57" viewBox="0 0 57 57" fill="none" xmlns="http://www.w3.org/2000/svg">
<path d="M57 28.5C57 44.2401 44.2401 57 28.5 57C12.7599 57 0 44.2401 0 28.5C0 12.7599 12.7599 0 28.5 0C43.028 0 55.0166 10.8707 56.7767 24.9218C56.9046 25.9373 56.9791 26.9691 56.9953 28.0149C56.9989 28.1766 57 28.3384 57 28.5Z" fill="#006BC0"/>
<path d="M56.9958 28.0146C54.5623 30.9786 49.794 30.7472 49.794 30.7472C46.8532 43.4163 29.0936 49.8643 16.763 46.6967C4.43366 43.5302 6.12974 28.8242 6.12974 28.8242H42.2154C45.1933 28.8242 45.4202 27.9192 45.4202 27.9192C42.7807 21.6597 46.8534 18.3037 46.8534 18.3037C50.021 18.8703 50.812 24.2992 50.812 24.2992C53.4118 23.8327 55.4999 24.3876 56.7771 24.9215C56.9051 25.937 56.9795 26.9688 56.9958 28.0146Z" fill="#F2F2F2"/>
<path d="M15.0278 23.0928H9.97461V27.6929H15.0278V23.0928Z" fill="#F2F2F2"/>
<path d="M21.3794 23.0928H16.3262V27.6929H21.3794V23.0928Z" fill="#F2F2F2"/>
<path d="M40.4262 23.0928H35.373V27.6929H40.4262V23.0928Z" fill="#F2F2F2"/>
<path d="M34.0786 23.0928H29.0254V27.6929H34.0786V23.0928Z" fill="#F2F2F2"/>
<path d="M34.0786 11.3291H29.0254V15.9292H34.0786V11.3291Z" fill="#F2F2F2"/>
<path d="M27.727 23.0928H22.6738V27.6929H27.727V23.0928Z" fill="#F2F2F2"/>
<path d="M21.3794 17.2109H16.3262V21.811H21.3794V17.2109Z" fill="#F2F2F2"/>
<path d="M34.0786 17.2109H29.0254V21.811H34.0786V17.2109Z" fill="#F2F2F2"/>
<path d="M27.727 17.2109H22.6738V21.811H27.727V17.2109Z" fill="#F2F2F2"/>
</svg>
