<svg width="58" height="58" viewBox="0 0 58 58" fill="none" xmlns="http://www.w3.org/2000/svg">
<path d="M12.2793 0H14.8848V2.58281H17.2863V0H19.8918V7.81641H17.2863V5.21094H14.9074V7.81641H12.2793V0ZM23.3355 2.60547H21.0359V0H28.252V2.60547H25.941V7.81641H23.3355V2.60547ZM29.3961 0H32.1262L33.8027 2.75273L35.4793 0H38.2094V7.81641H35.6039V3.94219L33.7801 6.75156L31.9562 3.94219V7.81641H29.3961V0ZM39.5008 0H42.1062V5.23359H45.7992V7.81641H39.5008" fill="black"/>
<path d="M12.1895 53.3549L8.45117 11.3955H49.5496L45.8113 53.3322L28.9664 57.9994" fill="#E44D26"/>
<path d="M29 54.4316V14.8398H45.7996L42.5937 50.6367" fill="#F16529"/>
<path d="M16.0859 19.9717H29V25.1146H21.7273L22.2031 30.3822H29V35.5139H17.4906L16.0859 19.9717ZM17.7172 38.0967H22.8828L23.2453 42.2088L29 43.7494V49.1189L18.4422 46.1736" fill="#EBEBEB"/>
<path d="M41.8699 19.9717H28.9785V25.1146H41.3941L41.8699 19.9717ZM40.9297 30.3822H28.9785V35.5252H35.3223L34.7219 42.2088L28.9785 43.7494V49.0963L39.5137 46.1736" fill="white"/>
</svg>
