<svg width="67" height="33" viewBox="0 0 67 33" fill="none" xmlns="http://www.w3.org/2000/svg">
<g clip-path="url(#clip0)">
<path d="M7.86388 25.5186C7.86388 25.5186 6.60079 26.2521 8.76608 26.4995C11.3881 26.7974 12.7301 26.7552 15.62 26.21C15.62 26.21 16.3813 26.6849 17.4442 27.0953C10.9596 29.8663 2.77206 26.9379 7.86388 25.5186ZM7.07163 21.9072C7.07163 21.9072 5.65347 22.9527 7.81877 23.1775C10.6212 23.467 12.8345 23.4895 16.6632 22.756C16.6632 22.756 17.1904 23.29 18.025 23.585C10.1927 25.8671 1.46668 23.7621 7.07163 21.9072Z" fill="#5582A0"/>
<path d="M13.7479 15.7777C15.3465 17.6101 13.3278 19.2598 13.3278 19.2598C13.3278 19.2598 17.3821 17.1745 15.5213 14.5608C13.7817 12.1242 12.4482 10.9157 19.6686 6.74219C19.6686 6.73938 8.33466 9.56105 13.7479 15.7777Z" fill="#F69731"/>
<path d="M22.3193 28.1911C22.3193 28.1911 23.2554 28.9612 21.2874 29.5542C17.5461 30.684 5.71875 31.024 2.43134 29.5992C1.25001 29.0877 3.46606 28.3766 4.16244 28.2277C4.88985 28.0703 5.3043 28.0984 5.3043 28.0984C3.99046 27.1766 -3.18489 29.9083 1.65883 30.6924C14.8733 32.8283 25.7449 29.7341 22.3193 28.1911ZM8.47329 18.1636C8.47329 18.1636 2.45671 19.5884 6.34183 20.1056C7.98272 20.3248 11.2532 20.2742 14.301 20.0184C16.7905 19.8105 19.2913 19.3636 19.2913 19.3636C19.2913 19.3636 18.4145 19.7402 17.7773 20.1702C11.6677 21.7721 -0.137126 21.0274 3.26306 19.3889C6.13602 18.0062 8.47329 18.1636 8.47329 18.1636ZM19.2659 24.1779C25.477 20.9627 22.6041 17.8713 20.5995 18.2872C20.1089 18.3884 19.889 18.4783 19.889 18.4783C19.889 18.4783 20.0723 18.1945 20.4191 18.0708C24.3859 16.6825 27.4337 22.1684 19.139 24.3437C19.1419 24.338 19.2377 24.2537 19.2659 24.1779Z" fill="#5582A0"/>
<path d="M15.5203 0C15.5203 0 18.96 3.43153 12.2583 8.70388C6.88453 12.9364 11.0318 15.3477 12.2555 18.1048C9.11748 15.2831 6.81686 12.7987 8.35907 10.4885C10.6259 7.09351 16.9075 5.4466 15.5203 0V0Z" fill="#F69731"/>
<path d="M9.08167 32.8957C15.0419 33.2751 24.1992 32.6849 24.4163 29.8717C24.4163 29.8717 23.9991 30.9368 19.4909 31.7828C14.4019 32.7383 8.1259 32.6259 4.4043 32.0132C4.40149 32.016 5.16554 32.6428 9.08167 32.8957ZM65.9065 19.608H65.7261V19.5068H66.2138V19.608H66.0334V20.1139H65.9065V19.608ZM66.882 19.6333L66.6987 20.1139H66.617L66.4365 19.6333H66.4337V20.1139H66.3125V19.5068H66.4873L66.6536 19.9368L66.82 19.5068H66.9948V20.1139H66.8792L66.882 19.6333Z" fill="#5582A0"/>
<path d="M52.7617 19.5068H57.9015V20.7294H54.397V23.9304H57.3178V25.0968H54.397V28.6604H58.0199V29.8717H52.7617V19.5068ZM60.2415 19.5068H65.3813V20.7294H61.8768V23.9304H64.7977V25.0968H61.8768V28.6604H65.4997V29.8717H60.2415V19.5068Z" fill="#F8981D"/>
<path d="M34.8414 28.076C34.2803 28.5622 33.6855 28.8348 33.1526 28.8348C32.3914 28.8348 31.9797 28.3795 31.9797 27.6516C31.9797 26.8619 32.4224 26.2857 34.1873 26.2857H34.8414V28.076ZM36.3921 29.8213V24.4196C36.3921 23.0397 35.6026 22.1291 33.6996 22.1291C32.5887 22.1291 31.616 22.4017 30.8238 22.7502L31.0521 23.7058C31.6752 23.4781 32.4816 23.2645 33.2738 23.2645C34.3706 23.2645 34.8414 23.7058 34.8414 24.6164V25.2993H34.2944C31.6301 25.2993 30.4291 26.3279 30.4291 27.8793C30.4291 29.2142 31.2213 29.973 32.7128 29.973C33.6714 29.973 34.3875 29.5796 35.0557 29.0006L35.1769 29.8213H36.3921ZM41.5713 29.8213H39.6372L37.3084 22.2668H38.9972L40.4435 26.9097L40.7649 28.3036C41.4952 26.2857 42.0111 24.2369 42.2705 22.2668H43.9142C43.4744 24.7541 42.6821 27.483 41.5713 29.8213ZM48.9976 28.076C48.4337 28.5622 47.8388 28.8348 47.3059 28.8348C46.5447 28.8348 46.1331 28.3795 46.1331 27.6516C46.1331 26.8619 46.5757 26.2857 48.3407 26.2857H48.9948L48.9976 28.076ZM50.5482 29.8213V24.4196C50.5482 23.0397 49.756 22.1291 47.8529 22.1291C46.7421 22.1291 45.7665 22.4017 44.9743 22.7502L45.2027 23.7058C45.8258 23.4781 46.6349 23.2645 47.4243 23.2645C48.5211 23.2645 48.9919 23.7058 48.9919 24.6164V25.2993H48.445C45.7806 25.2993 44.5796 26.3279 44.5796 27.8793C44.5796 29.2142 45.3718 29.973 46.8633 29.973C47.8219 29.973 48.538 29.5796 49.209 29.0006L49.3303 29.8213H50.5482ZM28.7261 31.1056C28.2835 31.7492 27.5702 32.2607 26.7864 32.5474L26.0195 31.648C26.6144 31.3417 27.1247 30.8527 27.3616 30.3946C27.5674 29.9871 27.652 29.4615 27.652 28.2081V19.5801H29.3013V28.0872C29.3013 29.765 29.1688 30.4424 28.7261 31.1056Z" fill="#5582A0"/>
</g>
<defs>
<clipPath id="clip0">
<rect width="67" height="33" fill="white"/>
</clipPath>
</defs>
</svg>
