<svg width="63" height="15" viewBox="0 0 63 15" fill="none" xmlns="http://www.w3.org/2000/svg">
<g clip-path="url(#clip0)">
<path fill-rule="evenodd" clip-rule="evenodd" d="M60.2372 2.00293L62.871 2.01717C62.871 2.01717 57.9743 8.52913 57.5744 9.05985C57.4446 9.23169 57.2473 9.41704 57.1473 9.6468C56.8943 10.2243 56.6346 11.4913 56.6346 11.4913L54.2248 11.5031C54.2248 11.5031 54.5998 10.1825 54.5843 9.47907C54.5708 8.8646 54.2511 8.25086 54.0718 7.63459C53.8906 7.01071 53.6445 5.78999 53.6445 5.78999H56.1221L56.4639 7.13151L60.2372 2.00293Z" fill="#1A1918"/>
<path fill-rule="evenodd" clip-rule="evenodd" d="M55.2489 3.37704C55.7349 3.6646 56.0332 5.25096 56.0332 5.25096C56.0332 5.25096 53.4899 5.28777 52.1059 5.28777H50.9099L49.4575 11.492H47.2364C47.2364 11.492 48.6187 4.74957 48.945 3.52716C49.0508 3.13135 49.6695 3.19929 50.7143 3.19929H52.3827C53.46 3.19929 54.7193 3.06426 55.2489 3.37704ZM44.9084 6.39868C44.9084 6.39868 44.9776 6.00046 44.6735 5.53925C44.4137 5.1461 44.1738 5.05463 43.4903 5.03363C41.5605 4.97414 41.598 6.37768 41.598 6.37768L44.9084 6.39868ZM47.0014 4.79132C47.2842 5.79254 46.7452 8.14505 46.7452 8.14505C46.7452 8.14505 43.9301 8.09895 42.3882 8.14505C41.9088 8.15941 41.335 8.09388 41.1922 8.31278C40.9914 8.61953 41.2656 9.09172 41.498 9.29119C41.7655 9.52083 42.2864 9.54702 42.4737 9.57031C43.7252 9.72634 46.3444 9.61061 46.3444 9.61061L45.8907 11.5824C45.8907 11.5824 42.1893 11.7646 40.3379 11.3309C39.9723 11.2455 39.6297 11.0728 39.3981 10.828C39.3349 10.761 39.2801 10.6696 39.2203 10.5907C39.1726 10.5277 39.0334 10.3208 38.971 10.1571C38.5481 9.0513 39.0205 6.93277 39.4836 5.79749C39.5373 5.66595 39.6048 5.49906 39.6759 5.35727C39.7647 5.18049 39.8398 4.9809 39.9107 4.87519C39.9585 4.8023 40.0176 4.75536 40.0671 4.68658C40.1243 4.60524 40.1908 4.52644 40.2524 4.45609C40.4234 4.26157 40.6173 4.124 40.8505 3.95313C41.6218 3.38621 43.0178 2.94612 44.6948 3.11458C45.3262 3.17829 46.2798 3.39961 46.7452 4.03688C46.8698 4.20703 46.9314 4.54491 47.0014 4.79144V4.79132ZM36.8139 3.19157L38.9676 3.17914C38.9676 3.17914 37.7673 8.76711 37.1556 11.492H34.678C32.9465 11.492 31.4045 11.7025 30.7484 10.4858C30.1119 9.30459 30.7193 7.362 31.0046 6.04221C31.2063 5.10821 31.631 3.19917 31.631 3.19917L33.8624 3.17914C33.8624 3.17914 33.2319 6.1513 32.9695 7.63533C32.8755 8.16689 32.6818 8.66744 32.8841 9.06047C33.0763 9.43455 33.3455 9.46134 34.1655 9.4798C34.4253 9.48584 35.2762 9.4798 35.2762 9.4798L36.8139 3.19157ZM26.7331 7.21599C26.9586 6.42969 27.2876 5.57702 27.2458 4.86843C27.2005 4.11061 26.553 3.4206 26.1352 3.27556C24.8768 2.83957 23.6988 3.44908 23.2305 3.94625C22.6248 4.59016 22.4198 5.34231 22.2053 6.3778C22.0457 7.14648 21.9149 7.95801 22.2053 8.55751C22.7195 9.61737 24.3232 9.38592 26.0497 9.39606C26.306 8.72198 26.5178 7.96488 26.7331 7.21599ZM29.7233 4.11399C29.9692 5.86953 29.0253 7.80729 28.3751 9.49235C29.0381 9.55112 29.6191 9.4833 29.6609 9.53181C29.7044 9.59468 29.2165 11.5432 29.0465 11.5482C28.5203 11.5616 26.7768 11.5759 26.0497 11.5759C23.6773 11.5759 21.4578 11.7276 20.326 10.5698C19.8664 10.0995 19.5485 9.29276 19.4716 8.72524C19.3435 7.77784 19.504 6.73475 19.7279 5.87472C19.9305 5.09819 20.19 4.36547 20.5823 3.69465C21.5792 1.98689 23.3134 0.719232 26.2205 1.01186C26.7844 1.06882 27.5942 1.31113 28.1001 1.59869C28.135 1.61884 28.2573 1.71442 28.2854 1.73119C28.9689 2.15801 29.5917 3.1766 29.7233 4.11399ZM19.2264 3.2017C19.0829 3.84308 18.9394 4.57013 18.7882 5.2039H16.3961C16.5814 4.50135 16.7233 3.80289 16.9087 3.19169C17.6742 3.19169 18.3858 3.2017 19.2265 3.2017H19.2264ZM16.3107 5.79085H18.6174C18.3158 7.4291 17.7186 10.0717 17.2505 11.9112C16.9574 13.0624 16.7618 13.9024 15.969 14.5103C15.898 14.5648 15.8571 14.5389 15.7981 14.5941C15.652 14.7309 14.9762 14.8894 14.6022 14.9295C13.9939 14.9942 13.3062 14.9379 12.5586 14.9229C12.7542 14.2211 12.9755 13.3785 13.1499 12.7495C14.9721 12.966 15.0183 11.2757 15.371 9.64754C15.5751 8.70678 16.1937 6.16807 16.3107 5.79085Z" fill="#1A1918"/>
<path fill-rule="evenodd" clip-rule="evenodd" d="M10.9294 10.0673L10.88 10.193C10.0377 11.8028 8.54511 12.7904 6.4162 12.834C5.42098 12.8541 4.47272 12.6035 3.85326 12.331C2.51645 11.7415 1.39199 10.6483 0.777938 9.48035C-0.102938 7.80602 -0.2618 5.47692 1.56979 3.7373C1.59807 3.7373 1.3476 4.11453 1.37589 4.11453L1.32547 4.2755C0.00563468 8.33082 4.072 11.8062 8.02487 11.4087C8.97485 11.3131 10.1862 10.8026 10.9294 10.0673Z" fill="#21609B"/>
<path fill-rule="evenodd" clip-rule="evenodd" d="M8.53729 8.39108C9.53178 8.39772 10.5705 7.94151 11.1857 7.30101C10.6475 8.64187 9.08925 9.50372 6.9997 9.22963C5.25 8.99984 3.58329 7.27168 3.41164 5.54003C3.2861 4.27979 3.73355 3.52765 4.47093 2.61523C4.21468 3.09244 4.1189 3.46042 4.09505 3.69517C3.81495 6.4213 6.31371 8.37672 8.53729 8.39108Z" fill="#21609B"/>
<path fill-rule="evenodd" clip-rule="evenodd" d="M11.0853 5.00567C10.9308 5.35374 10.0407 6.01102 9.64756 6.09321C8.09103 6.41871 7.0942 5.69421 6.572 4.86978C6.49441 4.74667 6.35092 4.41043 6.32522 4.32486C6.12271 3.649 6.21579 2.62676 6.81988 2.09766C6.6379 2.60081 6.61134 3.18519 6.70713 3.56512C6.76517 3.79479 6.94198 4.19585 7.11892 4.44809C7.44082 4.90755 7.64506 5.01919 8.05857 5.26323C8.24485 5.37305 8.44466 5.46116 8.53097 5.48529C8.92309 5.59862 9.75097 5.89709 11.0854 5.00567" fill="#21609B"/>
</g>
<defs>
<clipPath id="clip0">
<rect width="63" height="13.998" fill="white" transform="translate(0 0.959961)"/>
</clipPath>
</defs>
</svg>
