<svg width="63" height="64" viewBox="0 0 63 64" fill="none" xmlns="http://www.w3.org/2000/svg">
<g clip-path="url(#clip0)">
<path d="M0 0.947266H63V63.9383H0V0.947266Z" fill="#F0DB4F"/>
<path d="M57.844 48.9155C57.3828 46.0414 55.5084 43.6283 49.957 41.3769C48.0287 40.4908 45.8787 39.8561 45.238 38.3951C45.0104 37.5448 44.9805 37.0658 45.1242 36.5508C45.5374 34.8802 47.5316 34.3593 49.1126 34.8383C50.1306 35.1796 51.0948 35.9641 51.6757 37.2155C54.3945 35.4551 54.3885 35.4671 56.2869 34.2576C55.5923 33.1798 55.221 32.6828 54.7658 32.2218C53.1309 30.3955 50.9032 29.4554 47.34 29.5273C46.7231 29.6051 46.1004 29.6889 45.4835 29.7668C43.7049 30.2159 42.0101 31.1499 41.016 32.4014C38.0337 35.7845 38.8841 41.7063 42.5132 44.1433C46.0884 46.8259 51.3403 47.4366 52.0111 49.9455C52.6638 53.0172 49.7534 54.0111 46.8609 53.6579C44.7289 53.2148 43.5433 52.131 42.2616 50.161C39.9022 51.5262 39.9022 51.5262 37.4768 52.9214C38.0517 54.1788 38.6565 54.7476 39.6207 55.8374C44.184 60.4659 55.6042 60.2384 57.6524 53.2327C57.7362 52.9932 58.2872 51.3884 57.844 48.9155ZM34.2489 29.8984H28.3561C28.3561 34.988 28.3322 40.0417 28.3322 45.1313C28.3322 48.3706 28.4999 51.3405 27.9729 52.2507C27.1106 54.041 24.8768 53.8195 23.8587 53.4721C22.8227 52.9632 22.2957 52.2386 21.6849 51.2148C21.5172 50.9214 21.3914 50.6939 21.3495 50.6759C19.7506 51.6519 18.1575 52.6338 16.5586 53.6099C17.3551 55.2446 18.5288 56.6636 20.032 57.5857C22.2777 58.9329 25.296 59.3461 28.452 58.6216C30.5061 58.0228 32.2787 56.7834 33.2069 54.8973C34.5483 52.4243 34.2609 49.4305 34.2489 46.1192C34.2788 40.7183 34.2489 35.3174 34.2489 29.8984Z" fill="#323330"/>
</g>
<defs>
<clipPath id="clip0">
<rect width="63" height="62.991" fill="white" transform="translate(0 0.947266)"/>
</clipPath>
</defs>
</svg>
