<svg width="67" height="46" viewBox="0 0 67 46" fill="none" xmlns="http://www.w3.org/2000/svg">
<path d="M66.7604 21.484C66.2824 21.005 60.1481 13.2619 59.1124 11.9847C57.997 10.7075 57.519 10.9469 56.802 11.0268C56.085 11.1066 48.3573 12.4636 47.481 12.5435C46.6047 12.7031 46.047 13.0224 46.6047 13.8207C47.0827 14.5391 52.1814 21.7234 53.2967 23.3998L32.9816 28.2692L16.8888 1.20816C16.2515 0.250246 16.0922 -0.069058 14.6582 0.010768C13.2242 0.0905941 1.99111 1.04851 1.19444 1.04851C0.397765 1.12833 -0.478573 1.44764 0.318098 3.36346C1.11477 5.27928 13.8615 32.7394 14.1802 33.5377C14.4988 34.336 15.4548 35.6132 17.6059 35.1342C19.8365 34.5754 27.4846 32.5798 31.7069 31.4622C33.9376 35.4535 38.399 43.5958 39.2753 44.7932C40.3906 46.3897 41.1873 46.0704 42.8603 45.5914C44.2146 45.1923 63.7331 38.1676 64.6094 37.7685C65.4857 37.3693 66.0434 37.1299 65.4061 36.2518C64.9281 35.6132 59.8294 28.6683 57.1207 25.0761C58.953 24.5972 65.5654 22.841 66.2824 22.6015C67.0791 22.3621 67.2384 21.9629 66.7604 21.484ZM29.8746 29.0674C29.6356 29.1473 18.2432 31.8613 17.6855 32.021C17.0482 32.1807 17.0482 32.1008 17.0482 31.8613C16.8888 31.6219 3.50478 3.84242 3.26578 3.52311C3.10644 3.20381 3.10644 2.8845 3.26578 2.8845C3.42511 2.8845 14.0208 1.92659 14.3395 1.92659C14.7378 1.92659 14.6582 2.00642 14.8175 2.2459C14.8175 2.2459 29.7152 28.0297 29.9542 28.4288C30.2729 28.828 30.1136 28.9876 29.8746 29.0674ZM61.9007 35.0544C62.0601 35.3737 62.2991 35.5333 61.6617 35.693C61.1041 35.9325 42.462 42.2387 42.0636 42.3984C41.6653 42.558 41.4263 42.6379 40.9483 41.9194C40.4703 41.201 34.4156 30.7438 34.4156 30.7438L54.2527 25.5551C54.7307 25.3954 54.89 25.3156 55.2087 25.7946C55.5274 26.3534 61.7414 34.8149 61.9007 35.0544ZM63.1754 21.005C62.6974 21.0848 55.4477 22.9208 55.4477 22.9208L49.4727 14.7786C49.3133 14.5391 49.154 14.2996 49.5523 14.2198C49.9507 14.14 56.7224 12.9426 57.041 12.8628C57.3597 12.7829 57.5987 12.7031 57.9971 13.2619C58.3954 13.7408 63.4941 20.2866 63.7331 20.5261C63.9721 20.7655 63.6534 20.9252 63.1754 21.005Z" fill="#FB503B"/>
</svg>
