<svg width="68" height="32" viewBox="0 0 68 32" fill="none" xmlns="http://www.w3.org/2000/svg">
<path fill-rule="evenodd" clip-rule="evenodd" d="M64.9724 13.1501C64.6537 12.46 64.4996 11.6435 64.4667 10.8748C64.3848 8.98299 64.4544 7.08431 64.3689 5.19252C64.2924 3.49837 63.6878 1.97156 62.0612 1.09818C60.6289 0.329464 58.9688 0.252964 57.375 0.234901V3.25824C57.9062 3.27631 57.7756 3.29277 57.9052 3.29968C60.0456 3.40487 60.7628 4.08381 60.7899 6.20721C60.8101 7.78609 60.7962 9.36603 60.8218 10.9444C60.8531 12.8595 61.1389 14.6876 62.8904 15.8967C62.9202 15.9174 62.9175 15.9934 62.9345 16.0816C62.0431 16.7148 61.3376 17.5303 61.1325 18.6432C60.9673 19.5437 60.8738 20.4654 60.8457 21.3808C60.7947 23.0372 60.8472 24.6974 60.8 26.3538C60.7628 27.6511 60.1481 28.2599 58.8853 28.5489C58.4099 28.6584 57.9062 28.6971 57.375 28.7646V31.7805C58.4375 31.7168 58.9778 31.6748 59.7056 31.5962C62.4447 31.2997 63.9869 29.8744 64.303 27.2171C64.4018 26.3841 64.3907 25.5351 64.4093 24.6936C64.4443 23.1164 64.4263 21.5316 64.5676 19.9639C64.7116 18.3643 65.875 17.4803 67.4688 17.5685V14.4071C66.4062 14.5972 65.4272 14.1377 64.9724 13.1501ZM15.0418 19.5958C15.0413 13.4604 14.875 7.32496 14.875 1.19009V0.224807C13.2812 0.224807 11.5674 0.209401 9.88603 0.232245C9.20337 0.241276 8.60147 0.299713 7.92466 0.39215C5.33375 0.7449 4.08478 1.96093 3.62578 4.54227C3.49297 5.28709 3.51953 6.06112 3.50838 6.82293C3.48766 8.27112 3.52909 9.71984 3.50572 11.1675C3.4765 12.9907 2.61747 14.4039 0.758094 14.5112C0.692219 14.5149 1.0625 14.5909 0.53125 14.6366V17.4548C2.65625 17.7885 3.33253 18.6464 3.47384 20.6206C3.49616 20.9351 3.502 21.2522 3.50519 21.5683C3.52325 23.3321 3.50306 25.0985 3.58275 26.859C3.65766 28.5022 4.02262 29.9706 5.57547 30.8328C7.02578 31.6381 9.03125 31.7035 10.0938 31.7455V28.7365C10.0938 28.711 9.98219 28.6876 9.87859 28.6812C7.5735 28.5404 7.05394 27.9146 7.04012 25.6079C7.03109 24.0806 7.09644 22.5532 7.072 21.0259C7.04119 19.107 6.76069 17.287 5.0235 16.0725C4.99694 16.0539 5.02297 15.9753 5.01447 15.8691C6.18269 15.1306 6.80372 14.0012 6.97266 12.6316C7.06616 11.8762 7.0975 11.1101 7.11078 10.3478C7.13734 8.76837 7.10919 7.18737 7.15222 5.60902C7.1825 4.49977 7.89066 3.69121 8.79431 3.50952C9.65069 3.33687 10.0938 3.34218 11.6875 3.26196V4.35421C11.6875 9.8314 11.4925 15.3081 11.5212 20.7852C11.5313 22.6611 11.739 24.5104 13.7498 25.3205C14.8431 25.7609 16.0145 25.8964 17.2704 26.1928C17.4802 24.9646 17.5488 23.9456 17.7204 22.9373C15.4057 22.2733 15.0418 21.929 15.0418 19.5958ZM29.2124 9.02762C25.313 7.16293 20.5806 8.79334 18.7648 12.7044C17.3974 15.6496 17.4462 18.681 18.6501 21.6676C19.303 23.2869 20.4829 24.4992 22.0888 25.2121C25.2253 26.6046 28.3996 26.2661 31.5621 25.2886C31.7326 25.2355 31.9504 24.9072 31.9297 24.733C31.8219 23.8506 31.6428 22.9766 31.4829 22.0656C30.7302 22.2552 30.1012 22.4491 29.4583 22.5697C27.7599 22.889 26.0578 22.8885 24.4051 22.2313C22.7731 21.5832 21.6771 19.7185 21.9497 18.1247H33.0379C33.1734 16.531 33.1197 14.3396 32.4413 12.5275C31.8357 10.9077 30.7902 9.78253 29.2124 9.02762ZM29.189 15.469H21.9024C21.9061 13.344 23.6364 11.4368 25.9064 11.4804C27.9002 11.5187 29.2793 13.344 29.189 15.469ZM58.9964 21.9922C59.2578 19.3073 58.4471 17.7964 56.0564 16.6298C55.2086 16.216 54.3086 15.9094 53.4448 15.5259C52.7983 15.239 52.1475 14.9484 51.5429 14.585C50.9543 14.2317 50.7078 13.6452 50.7949 12.9583C50.8805 12.2799 51.3166 11.8326 51.9467 11.7051C52.7101 11.55 53.5102 11.4172 54.2778 11.4799C55.3626 11.5686 56.4326 11.8464 57.5519 12.051L58.2595 8.96015C56.7449 8.72959 55.3329 8.43156 53.9059 8.31893C52.3191 8.19409 50.7737 8.45759 49.3212 9.20612C46.2522 10.7876 46.1959 15.6427 49.0163 17.2365C49.8589 17.7125 50.7604 18.0844 51.637 18.5009C52.5597 18.9402 53.516 19.3222 54.3989 19.8311C55.0694 20.2173 55.309 20.8915 55.1294 21.6772C54.9631 22.4077 54.4101 22.7333 53.7604 22.7955C52.7723 22.8895 51.7586 22.9798 50.7806 22.8635C49.6028 22.7232 48.45 22.3657 47.2435 22.0926L46.6283 25.1686C49.4615 26.2321 52.2649 26.4064 55.0954 25.779C57.4642 25.2541 58.8136 23.8686 58.9964 21.9922ZM43.9009 16.9709C42.8602 16.4189 41.7408 16.0162 40.6667 15.5243C39.9999 15.2188 39.2939 14.9537 38.7063 14.5303C37.5764 13.7159 37.7868 12.1546 39.1027 11.737C39.8576 11.4969 40.7113 11.4225 41.5044 11.482C42.585 11.5633 43.6512 11.8427 44.778 12.0467L45.4463 9.1004C44.8742 8.94474 44.3562 8.77527 43.8255 8.66371C41.7159 8.21959 39.5951 8.04746 37.5174 8.77793C35.7324 9.40587 34.4941 10.5799 34.2492 12.5551C33.975 14.7609 34.7066 16.5023 36.7439 17.5499C37.5594 17.9696 38.4333 18.274 39.2658 18.6629C40.0966 19.0507 40.945 19.421 41.7169 19.9076C42.3072 20.2795 42.5398 20.909 42.3736 21.6368C42.2083 22.3583 41.6824 22.7216 41.0279 22.7891C40.0398 22.8906 39.0256 22.9846 38.0471 22.8704C36.8645 22.7323 35.708 22.3737 34.4803 22.0974C34.2991 22.9543 34.0866 23.8176 33.9543 24.6926C33.9256 24.8828 34.1376 25.2483 34.3161 25.3104C37.1763 26.3017 40.0876 26.4441 42.9967 25.5872C44.7339 25.0761 45.9489 23.9664 46.1938 22.0687C46.4716 19.9145 45.9579 18.061 43.9009 16.9709Z" fill="#2A4D80"/>
</svg>
