<svg width="67" height="42" viewBox="0 0 67 42" fill="none" xmlns="http://www.w3.org/2000/svg">
<g clip-path="url(#clip0)">
<path d="M33.1222 41.879C32.8955 41.879 32.6838 41.8172 32.4871 41.7089L30.4759 40.4877C30.1734 40.3176 30.3247 40.2558 30.4155 40.2249C30.8237 40.0858 30.8993 40.0548 31.3227 39.8076C31.3681 39.7765 31.4287 39.7921 31.474 39.823L33.0165 40.766C33.0769 40.7969 33.1526 40.7969 33.1978 40.766L39.2316 37.1949C39.2921 37.164 39.3224 37.1021 39.3224 37.0249V29.8983C39.3224 29.8208 39.2921 29.7592 39.2316 29.7281L33.1978 26.1726C33.1374 26.1415 33.0618 26.1415 33.0165 26.1726L26.9827 29.7281C26.9223 29.759 26.8919 29.8363 26.8919 29.8981V37.0248C26.8919 37.0867 26.9223 37.1639 26.9827 37.1949L28.6311 38.1688C29.5233 38.6325 30.0828 38.0915 30.0828 37.5504V30.5165C30.0828 30.4238 30.1584 30.331 30.2642 30.331H31.0354C31.1262 30.331 31.2169 30.4083 31.2169 30.5165V37.5504C31.2169 38.7716 30.5666 39.4828 29.4325 39.4828C29.0847 39.4828 28.8125 39.4828 28.0412 39.0963L26.4535 38.1688C26.0603 37.937 25.8184 37.504 25.8184 37.0403V29.9137C25.8184 29.4499 26.0603 29.0169 26.4535 28.7851L32.4871 25.2141C32.8652 24.9977 33.3795 24.9977 33.7575 25.2141L39.7911 28.7851C40.1843 29.0169 40.4263 29.4499 40.4263 29.9137V37.0403C40.4263 37.504 40.1843 37.937 39.7911 38.1688L33.7575 41.7398C33.5608 41.8327 33.334 41.879 33.1223 41.879H33.1222ZM34.9823 36.9785C32.336 36.9785 31.7916 35.7417 31.7916 34.6905C31.7916 34.5977 31.8672 34.505 31.973 34.505H32.7594C32.8501 34.505 32.9257 34.5668 32.9257 34.6596C33.0467 35.4789 33.3945 35.8809 34.9974 35.8809C36.2677 35.8809 36.8122 35.5871 36.8122 34.8914C36.8122 34.4895 36.6608 34.1959 34.6799 33.9949C33.0315 33.8247 32.0033 33.4538 32.0033 32.1089C32.0033 30.8566 33.0317 30.1146 34.7555 30.1146C36.6911 30.1146 37.6438 30.7948 37.7649 32.2788C37.7649 32.3253 37.7497 32.3716 37.7195 32.418C37.6891 32.4489 37.6439 32.4798 37.5985 32.4798H36.8121C36.7365 32.4798 36.6608 32.418 36.6458 32.3407C36.4643 31.4905 35.9955 31.2122 34.7555 31.2122C33.3643 31.2122 33.1978 31.7069 33.1978 32.0779C33.1978 32.5262 33.3945 32.6653 35.2696 32.9126C37.1296 33.1601 38.0068 33.5156 38.0068 34.845C37.9916 36.2055 36.9029 36.9785 34.9823 36.9785Z" fill="#539E43"/>
<path d="M14.4012 14.0061C14.4012 13.7279 14.25 13.4649 14.008 13.3258L7.59626 9.55383C7.49027 9.4919 7.36938 9.461 7.24848 9.44549H7.1879C7.067 9.44549 6.94597 9.4919 6.84012 9.55383L0.428337 13.3258C0.186279 13.4649 0.0351562 13.7277 0.0351562 14.0061L0.0503339 24.1472C0.0503339 24.2863 0.125961 24.4254 0.246859 24.4874C0.367888 24.5647 0.51901 24.5647 0.624992 24.4874L4.43577 22.2612C4.67769 22.1221 4.82895 21.8593 4.82895 21.5811V16.8351C4.82895 16.5569 4.98007 16.294 5.22213 16.1549L6.84012 15.1964C6.96115 15.1191 7.09722 15.0881 7.2333 15.0881C7.36938 15.0881 7.50545 15.1191 7.61143 15.1964L9.22943 16.1549C9.47148 16.294 9.62261 16.5567 9.62261 16.8351V21.5811C9.62261 21.8593 9.77386 22.1221 10.0158 22.2612L13.8266 24.4874C13.9476 24.5647 14.0987 24.5647 14.2197 24.4874C14.3408 24.4254 14.4164 24.2863 14.4164 24.1472L14.4012 14.0061ZM45.2201 0.0464475C45.0992 -0.0154825 44.948 -0.0154825 44.842 0.0464475C44.7211 0.12376 44.6455 0.247352 44.6455 0.38646V10.435C44.6455 10.5277 44.6002 10.6204 44.5094 10.6823C44.4187 10.7286 44.3279 10.7286 44.2373 10.6823L42.6343 9.73935C42.5168 9.67095 42.3839 9.63498 42.2487 9.63498C42.1134 9.63498 41.9805 9.67095 41.863 9.73935L35.4512 13.5268C35.2093 13.666 35.058 13.9288 35.058 14.207V21.7665C35.058 22.0447 35.2093 22.3076 35.4512 22.4468L41.863 26.2343C41.9805 26.3027 42.1134 26.3386 42.2487 26.3386C42.3839 26.3386 42.5168 26.3027 42.6343 26.2343L49.0461 22.4468C49.288 22.3076 49.4393 22.0448 49.4393 21.7665V2.92184C49.4393 2.62811 49.288 2.36541 49.0461 2.22617L45.2203 0.0464475H45.2201ZM44.6304 19.2776C44.6304 19.3549 44.6002 19.4167 44.5396 19.4476L42.347 20.7462C42.3164 20.7614 42.2827 20.7694 42.2487 20.7694C42.2146 20.7694 42.181 20.7614 42.1503 20.7462L39.9577 19.4476C39.8971 19.4167 39.8669 19.3394 39.8669 19.2776V16.6805C39.8669 16.6031 39.8971 16.5413 39.9577 16.5104L42.1503 15.2118C42.181 15.1965 42.2146 15.1886 42.2487 15.1886C42.2827 15.1886 42.3164 15.1965 42.347 15.2118L44.5396 16.5104C44.6002 16.5412 44.6304 16.6187 44.6304 16.6805V19.2776ZM66.5575 16.6187C66.7995 16.4795 66.9356 16.2167 66.9356 15.9384V14.0988C66.9356 13.8206 66.7844 13.5577 66.5575 13.4186L60.1911 9.64666C60.0736 9.57828 59.9407 9.54232 59.8055 9.54232C59.6703 9.54232 59.5374 9.57828 59.4199 9.64666L53.0081 13.434C52.7661 13.5731 52.6149 13.836 52.6149 14.1143V21.6738C52.6149 21.952 52.7661 22.2148 53.0081 22.3539L59.3745 26.0641C59.6166 26.2032 59.9038 26.2032 60.1306 26.0641L63.9867 23.8691C64.1077 23.8072 64.1833 23.6681 64.1833 23.529C64.1833 23.3899 64.1077 23.2508 63.9867 23.1888L57.5447 19.4014C57.4238 19.3242 57.3482 19.2005 57.3482 19.0613V16.6961C57.3482 16.557 57.4238 16.4179 57.5447 16.356L59.556 15.181C59.6149 15.1432 59.683 15.1231 59.7526 15.1231C59.8221 15.1231 59.8903 15.1432 59.9492 15.181L61.9603 16.356C62.0814 16.4333 62.157 16.5569 62.157 16.6961V18.5512C62.157 18.6903 62.2326 18.8294 62.3535 18.8912C62.4745 18.9685 62.6257 18.9685 62.7467 18.8912L66.5575 16.6187Z" fill="#333333"/>
<path d="M59.7068 16.2634C59.7293 16.2483 59.7555 16.2402 59.7824 16.2402C59.8093 16.2402 59.8355 16.2483 59.858 16.2634L61.0829 16.99C61.1283 17.0207 61.1585 17.0671 61.1585 17.1291V18.5822C61.1585 18.644 61.1283 18.6904 61.0829 18.7213L59.858 19.4479C59.8355 19.463 59.8093 19.4711 59.7824 19.4711C59.7555 19.4711 59.7293 19.463 59.7068 19.4479L58.4819 18.7213C58.4365 18.6904 58.4062 18.644 58.4062 18.5822V17.1291C58.4062 17.0671 58.4365 17.0207 58.4819 16.99L59.7068 16.2634Z" fill="#539E43"/>
<mask id="mask0" mask-type="alpha" maskUnits="userSpaceOnUse" x="17" y="9" width="15" height="18">
<path d="M25.1231 9.67758C25.0056 9.6092 24.8727 9.57324 24.7375 9.57324C24.6023 9.57324 24.4694 9.6092 24.3519 9.67758L17.9856 13.4339C17.7435 13.573 17.6074 13.8358 17.6074 14.1141V21.6428C17.6074 21.921 17.7587 22.1838 17.9856 22.3229L24.3519 26.0795C24.4694 26.1479 24.6023 26.1838 24.7375 26.1838C24.8727 26.1838 25.0056 26.1479 25.1231 26.0795L31.4896 22.3229C31.7316 22.1838 31.8678 21.921 31.8678 21.6428V14.1142C31.8678 13.836 31.7164 13.5731 31.4896 13.434L25.1231 9.67758Z" fill="white"/>
</mask>
<g mask="url(#mask0)">
<path d="M25.1231 9.67758C25.0056 9.6092 24.8727 9.57324 24.7375 9.57324C24.6023 9.57324 24.4694 9.6092 24.3519 9.67758L17.9856 13.4339C17.7435 13.573 17.6074 13.8358 17.6074 14.1141V21.6428C17.6074 21.921 17.7587 22.1838 17.9856 22.3229L24.3519 26.0795C24.4694 26.1479 24.6023 26.1838 24.7375 26.1838C24.8727 26.1838 25.0056 26.1479 25.1231 26.0795L31.4896 22.3229C31.7316 22.1838 31.8678 21.921 31.8678 21.6428V14.1142C31.8678 13.836 31.7164 13.5731 31.4896 13.434L25.1231 9.67758Z" fill="url(#paint0_linear)"/>
<path d="M31.5053 13.4344L25.1087 9.6779C25.0459 9.64545 24.98 9.61955 24.9121 9.60059L17.7441 22.1535C17.8035 22.2276 17.8752 22.2904 17.956 22.339L24.3526 26.0956C24.5341 26.2038 24.7458 26.2347 24.9423 26.1728L31.6718 13.5891C31.6264 13.5273 31.5658 13.4808 31.5053 13.4345V13.4344Z" fill="url(#paint1_linear)"/>
<path fill-rule="evenodd" clip-rule="evenodd" d="M31.5208 22.3237C31.7023 22.2155 31.8383 22.0299 31.8989 21.829L24.882 9.58536C24.7005 9.55446 24.5038 9.56984 24.3377 9.67805L17.9863 13.4193L24.8366 26.1885C24.9362 26.1718 25.033 26.1406 25.1239 26.0958L31.5206 22.3238L31.5208 22.3237Z" fill="url(#paint2_linear)"/>
<path fill-rule="evenodd" clip-rule="evenodd" d="M31.5205 22.3236L25.1389 26.0802C25.0488 26.1272 24.9517 26.1585 24.8516 26.1729L24.9726 26.4049L32.0497 22.2156V22.1227L31.8682 21.8135C31.838 22.0299 31.7019 22.2154 31.5205 22.3236Z" fill="url(#paint3_linear)"/>
<path fill-rule="evenodd" clip-rule="evenodd" d="M31.5205 22.3236L25.1389 26.0802C25.0488 26.1272 24.9517 26.1585 24.8516 26.1729L24.9726 26.4049L32.0497 22.2156V22.1227L31.8682 21.8135C31.838 22.0299 31.7019 22.2154 31.5205 22.3236Z" fill="url(#paint4_linear)"/>
</g>
</g>
<defs>
<linearGradient id="paint0_linear" x1="27.3313" y1="12.4779" x2="20.1321" y2="23.5433" gradientUnits="userSpaceOnUse">
<stop stop-color="#41873F"/>
<stop offset="0.3288" stop-color="#418B3D"/>
<stop offset="0.6352" stop-color="#419637"/>
<stop offset="0.9319" stop-color="#3FA92D"/>
<stop offset="1" stop-color="#3FAE2A"/>
</linearGradient>
<linearGradient id="paint1_linear" x1="23.7716" y1="18.7607" x2="41.4216" y2="9.38047" gradientUnits="userSpaceOnUse">
<stop offset="0.1376" stop-color="#41873F"/>
<stop offset="0.4032" stop-color="#54A044"/>
<stop offset="0.7136" stop-color="#66B848"/>
<stop offset="0.9081" stop-color="#6CC04A"/>
</linearGradient>
<linearGradient id="paint2_linear" x1="17.3757" y1="17.8794" x2="32.1075" y2="17.8794" gradientUnits="userSpaceOnUse">
<stop offset="0.09192" stop-color="#6CC04A"/>
<stop offset="0.2864" stop-color="#66B848"/>
<stop offset="0.5968" stop-color="#54A044"/>
<stop offset="0.8624" stop-color="#41873F"/>
</linearGradient>
<linearGradient id="paint3_linear" x1="17.3755" y1="24.1218" x2="32.1071" y2="24.1218" gradientUnits="userSpaceOnUse">
<stop offset="0.09192" stop-color="#6CC04A"/>
<stop offset="0.2864" stop-color="#66B848"/>
<stop offset="0.5968" stop-color="#54A044"/>
<stop offset="0.8624" stop-color="#41873F"/>
</linearGradient>
<linearGradient id="paint4_linear" x1="34.2533" y1="12.1225" x2="30.3592" y2="32.0827" gradientUnits="userSpaceOnUse">
<stop stop-color="#41873F"/>
<stop offset="0.3288" stop-color="#418B3D"/>
<stop offset="0.6352" stop-color="#419637"/>
<stop offset="0.9319" stop-color="#3FA92D"/>
<stop offset="1" stop-color="#3FAE2A"/>
</linearGradient>
<clipPath id="clip0">
<rect width="67" height="42" fill="white"/>
</clipPath>
</defs>
</svg>
