<svg width="67" height="35" viewBox="0 0 67 35" fill="none" xmlns="http://www.w3.org/2000/svg">
<path d="M33.5 34.7959C52.0015 34.7959 67 27.0066 67 17.398C67 7.78933 52.0015 0 33.5 0C14.9985 0 0 7.78933 0 17.398C0 27.0066 14.9985 34.7959 33.5 34.7959Z" fill="#8993BE"/>
<path fill-rule="evenodd" clip-rule="evenodd" d="M9.4082 27.6994L13.0796 9.1567H21.569C25.2401 9.38569 27.0758 11.2169 27.0758 14.422C27.0758 19.9161 22.7163 23.121 18.8154 22.892H14.6858L13.7679 27.6994H9.4082ZM15.6033 19.4584L16.7507 12.5906H19.7335C21.3397 12.5906 22.4868 13.2773 22.4868 14.6508C22.2575 18.5427 20.4219 19.2294 18.3569 19.4584H15.6036H15.6033ZM26.2228 22.892L29.894 4.34961H34.2537L33.3358 9.1567H37.4658C41.1372 9.38569 42.5138 11.2169 42.055 13.5063L40.4488 22.892H35.8599L37.466 14.422C37.6953 13.2773 37.6953 12.5906 36.0894 12.5906H32.6475L30.5826 22.892H26.2228ZM40.1549 27.6994L43.826 9.1567H52.3157C55.9871 9.38569 57.8228 11.2169 57.8228 14.422C57.8228 19.9161 53.4631 23.121 49.5624 22.892H45.4322L44.5144 27.6994H40.1549ZM46.3498 19.4584L47.4972 12.5906H50.4803C52.0864 12.5906 53.2335 13.2773 53.2335 14.6508C53.0043 18.5427 51.1686 19.2294 49.1036 19.4584H46.3501H46.3498Z" fill="#232531"/>
</svg>
