<svg width="63" height="56" viewBox="0 0 63 56" fill="none" xmlns="http://www.w3.org/2000/svg">
<path d="M0.185547 27.9385C0.185547 32.617 4.80281 36.9842 12.082 39.446C10.6283 46.6864 11.8216 52.5223 15.8067 54.7961C19.9027 57.1335 26.0051 55.5156 31.7972 50.5061C37.4431 55.3133 43.149 57.2051 47.1307 54.9247C51.223 52.5807 52.4675 46.3491 50.9737 38.8826C58.5556 36.4026 62.7966 32.6786 62.7966 27.9385C62.7966 23.3687 58.171 19.4153 50.9897 16.9694C52.5979 9.19436 51.2353 3.50014 47.0851 1.13231C43.0841 -1.15054 37.3117 0.839161 31.5829 5.77203C25.6227 0.536274 19.9074 -1.06216 15.7617 1.31224C11.7643 3.60167 10.6237 9.54375 12.082 16.918C5.0484 19.3442 0.185547 23.3872 0.185547 27.9385Z" fill="white"/>
<path d="M49.4679 19.3991C48.876 19.1982 48.2792 19.0122 47.6779 18.8411C47.7776 18.4401 47.8698 18.0374 47.9545 17.6332C49.3094 11.1255 48.4235 5.8829 45.3982 4.15713C42.4976 2.50196 37.7536 4.22773 32.9623 8.35299C32.4902 8.76041 32.0286 9.17957 31.5779 9.61006C31.276 9.32381 30.9689 9.04311 30.6565 8.76812C25.6352 4.35678 20.602 2.49806 17.5799 4.22895C14.682 5.88874 13.8237 10.8175 15.0435 16.9848C15.1649 17.5955 15.3019 18.2031 15.4545 18.807C14.7423 19.0071 14.0545 19.2204 13.3965 19.4473C7.50966 21.4779 3.75 24.6607 3.75 27.9618C3.75 31.3714 7.78577 34.7913 13.9177 36.8648C14.4149 37.0321 14.9162 37.1872 15.4212 37.3298C15.2572 37.9804 15.1115 38.6353 14.9844 39.294C13.8215 45.3541 14.7298 50.166 17.62 51.8156C20.6052 53.5187 25.6155 51.7681 30.4944 47.5486C30.88 47.215 31.2671 46.8613 31.6546 46.4904C32.1428 46.9565 32.644 47.409 33.1577 47.8474C37.8835 51.8708 42.5507 53.4956 45.4385 51.8416C48.421 50.1334 49.3901 44.9641 48.1316 38.6748C48.0357 38.1944 47.9237 37.7038 47.7982 37.2042C48.1501 37.1014 48.4954 36.9953 48.8322 36.8847C55.2068 34.7952 59.354 31.417 59.354 27.9618C59.354 24.6487 55.4733 21.4446 49.4679 19.3991Z" fill="#53C1DE"/>
<path d="M48.0849 34.653C47.781 34.7526 47.469 34.8488 47.151 34.942C46.4472 32.7378 45.4974 30.3939 44.3354 27.9725C45.4445 25.6083 46.3574 23.2945 47.0415 21.1044C47.6102 21.2676 48.1624 21.4392 48.6945 21.6206C53.8401 23.3729 56.9786 25.9643 56.9786 27.9608C56.9786 30.0876 53.5886 32.8486 48.0849 34.653ZM45.8013 39.1303C46.3577 41.9114 46.4372 44.4258 46.0685 46.3914C45.7373 48.1575 45.0714 49.335 44.248 49.8066C42.4956 50.8102 38.748 49.5057 34.7069 46.0648C34.2435 45.6704 33.7767 45.2492 33.3086 44.8036C34.8754 43.108 36.4412 41.1368 37.9694 38.948C40.6576 38.712 43.1972 38.3261 45.5003 37.7995C45.6135 38.2524 45.7144 38.6962 45.8013 39.1303ZM22.7063 49.6333C20.9943 50.2315 19.6308 50.2485 18.8067 49.7784C17.0526 48.7777 16.3237 44.9137 17.3181 39.7312C17.4364 39.1188 17.5718 38.5097 17.7241 37.9047C20.0016 38.4031 22.5228 38.7617 25.2174 38.9779C26.7556 41.1198 28.3668 43.0886 29.9904 44.8126C29.6453 45.1429 29.2921 45.4647 28.931 45.7778C26.7736 47.6438 24.6115 48.9674 22.7063 49.6333ZM14.6857 34.6399C11.9744 33.7229 9.73529 32.5314 8.20047 31.2312C6.82142 30.0625 6.125 28.9023 6.125 27.9608C6.125 25.9577 9.1437 23.4024 14.1783 21.6656C14.8102 21.4486 15.4484 21.2499 16.0921 21.0699C16.788 23.3091 17.7008 25.6504 18.8022 28.018C17.6865 30.4209 16.7607 32.7994 16.0584 35.065C15.5974 34.9344 15.1397 34.7927 14.6857 34.6399ZM17.3745 16.5324C16.3293 11.2482 17.0233 7.2622 18.7697 6.26199C20.6301 5.19653 24.7434 6.71584 29.0789 10.5246C29.356 10.768 29.6343 11.023 29.9131 11.2867C28.2979 13.0029 26.7015 14.9568 25.1765 17.0863C22.5614 17.3261 20.058 17.7113 17.7566 18.2272C17.6149 17.6655 17.4874 17.1005 17.3745 16.5324ZM41.3595 22.3922C40.8159 21.4632 40.2521 20.5459 39.6686 19.6409C41.4429 19.8624 43.1426 20.1571 44.7387 20.5176C44.2596 22.0372 43.6623 23.6261 42.959 25.255C42.4451 24.2903 41.9119 23.3358 41.3595 22.3922ZM31.5784 12.9662C32.674 14.1405 33.7712 15.4518 34.8506 16.8745C32.6612 16.7721 30.4681 16.7716 28.2787 16.873C29.359 15.4635 30.4656 14.1541 31.5784 12.9662ZM21.7346 22.4083C21.1891 23.3444 20.6658 24.293 20.165 25.2533C19.4733 23.63 18.8815 22.034 18.3982 20.4928C19.9847 20.1415 21.6765 19.8544 23.4392 19.6365C22.8491 20.5471 22.2808 21.4713 21.7346 22.4083ZM23.4899 36.4528C21.6689 36.2517 19.9514 35.9792 18.3654 35.6376C18.8564 34.0692 19.4612 32.4388 20.1677 30.7807C20.6706 31.7418 21.1962 32.6909 21.7442 33.6275C22.3033 34.5829 22.8854 35.5249 23.4899 36.4528ZM31.6441 43.1214C30.5183 41.9194 29.3954 40.59 28.2986 39.16C29.3631 39.2014 30.4486 39.2224 31.5518 39.2224C32.6853 39.2224 33.8057 39.1973 34.9084 39.1486C33.8256 40.6046 32.7323 41.9359 31.6441 43.1214ZM42.9816 30.6963C43.7248 32.3724 44.3513 33.9939 44.8489 35.5359C43.2366 35.8999 41.496 36.193 39.662 36.4107C40.2497 35.4888 40.8189 34.5555 41.3691 33.6112C41.9284 32.6515 42.466 31.6796 42.9816 30.6963ZM39.3113 32.4371C38.469 33.8848 37.5794 35.3051 36.6438 36.6956C34.994 36.8122 33.2892 36.8723 31.5518 36.8723C29.8216 36.8723 28.1384 36.819 26.5174 36.715C25.5576 35.3278 24.6511 33.9051 23.7999 32.45C22.9528 31.0027 22.1614 29.524 21.4277 28.0173C22.1596 26.51 22.9485 25.0306 23.7928 23.5821C24.6368 22.1332 25.5362 20.7171 26.4889 19.3358C28.1426 19.2121 29.8381 19.1474 31.5521 19.1474C33.2737 19.1474 34.9714 19.2126 36.6246 19.3373C37.5677 20.7164 38.4612 22.1281 39.3037 23.5696C40.1509 25.015 40.9503 26.4872 41.7008 27.9839C40.9581 29.4959 40.1609 30.9813 39.3113 32.4371ZM44.2116 6.19212C46.0734 7.25466 46.7977 11.5391 45.6278 17.1579C45.5511 17.5239 45.4678 17.8885 45.3778 18.2516C43.071 17.725 40.5658 17.333 37.9431 17.0895C36.4152 14.9369 34.8321 12.9796 33.2429 11.2854C33.6593 10.8882 34.0857 10.5013 34.5215 10.125C38.6267 6.5902 42.4634 5.19459 44.2116 6.19212Z" fill="white"/>
<path d="M31.5531 23.0498C34.2955 23.0498 36.5183 25.2494 36.5183 27.9625C36.5183 30.6758 34.2955 32.8754 31.5531 32.8754C28.811 32.8754 26.5879 30.6758 26.5879 27.9625C26.5879 25.2494 28.811 23.0498 31.5531 23.0498Z" fill="#53C1DE"/>
</svg>
