<svg width="67" height="46" viewBox="0 0 67 46" fill="none" xmlns="http://www.w3.org/2000/svg">
<path d="M0 45.8406H14.5428L15.5816 33.3381L2.07685 30.2133L0 45.8406ZM2.59693 28.129L15.5816 31.2545L18.6979 20.3154L7.79078 14.5861L2.59693 28.129ZM8.82886 12.5018L19.2166 18.2318L27.5274 12.5018L19.7366 3.64635L8.82886 12.5018ZM67 45.8406H52.4579L51.4184 33.3381L64.9231 30.2133L67 45.8406ZM64.4031 28.129L51.4184 31.2545L48.3028 20.3154L59.2092 14.5861L64.4031 28.129ZM58.1704 12.5018L47.7827 18.2318L39.4733 12.5018L47.2641 3.64635L58.1704 12.5018ZM22.3336 2.08363L30.1243 11.46H37.395L44.1477 2.08363L37.395 0H29.9415L22.3336 2.08363Z" fill="#4C4C4C"/>
<path d="M0 45.8411H14.5428L15.5815 33.3386L2.07685 30.2139L0 45.8411Z" fill="#9C0000"/>
<path d="M2.59766 28.1289L15.5823 31.2543L18.6986 20.3152L7.79151 14.5859L2.59766 28.1289Z" fill="#B50808"/>
<path d="M8.82617 12.5019L19.2139 18.2319L27.5247 12.5019L19.734 3.64648L8.82617 12.5019Z" fill="#C61818"/>
<path d="M66.9995 45.8411H52.4574L51.418 33.3386L64.9227 30.2139L66.9995 45.8411Z" fill="#9C0000"/>
<path d="M64.403 28.1289L51.4184 31.2543L48.3027 20.3152L59.2091 14.5859L64.403 28.1289Z" fill="#B50808"/>
<path d="M58.1718 12.5019L47.7841 18.2319L39.4746 12.5019L47.2654 3.64648L58.1718 12.5019Z" fill="#C61818"/>
<path d="M22.334 2.08363L30.1248 11.46H37.3955L44.1482 2.08363L37.3955 0H29.9419L22.334 2.08363Z" fill="#CE3129"/>
</svg>
