<svg width="67" height="50" viewBox="0 0 67 50" fill="none" xmlns="http://www.w3.org/2000/svg">
<path d="M57.6562 28.7239C55.3138 28.737 53.2854 29.2968 51.5843 30.1303C50.9562 28.8933 50.328 27.8124 50.2235 27.0053C50.1057 26.0678 49.9618 25.4947 50.1057 24.375C50.2495 23.2551 50.9038 21.6666 50.9038 21.5364C50.8906 21.4192 50.7597 20.8463 49.412 20.8333C48.0643 20.8202 46.8995 21.0937 46.7687 21.4452C46.6378 21.7968 46.3761 22.6041 46.206 23.4374C45.9704 24.6614 43.5103 28.9973 42.1101 31.276C41.652 30.3905 41.2595 29.6093 41.1808 28.9842C41.0632 28.0468 40.9191 27.4737 41.0632 26.3541C41.2071 25.2342 41.8614 23.6458 41.8614 23.5155C41.8483 23.3984 41.7175 22.8254 40.3698 22.8124C39.0218 22.7994 37.8573 23.0728 37.7264 23.4244C37.5955 23.776 37.4516 24.6093 37.1637 25.4166C36.8888 26.2239 33.6173 33.4635 32.7667 35.3515C32.3349 36.315 31.9555 37.0832 31.6806 37.6041C31.4058 38.1249 31.6675 37.6431 31.6413 37.6952C31.4058 38.1379 31.2749 38.3853 31.2749 38.3853V38.3985C31.0917 38.724 30.8954 39.0364 30.8037 39.0364C30.7382 39.0364 30.6074 38.164 30.8298 36.9662C31.314 34.453 32.4918 30.5339 32.4788 30.3907C32.4788 30.3256 32.7011 29.6353 31.7197 29.2839C30.7644 28.9323 30.4243 29.5183 30.3457 29.5183C30.2672 29.5183 30.2017 29.7266 30.2017 29.7266C30.2017 29.7266 31.2617 25.3127 28.1734 25.3127C26.2367 25.3127 23.5672 27.409 22.2455 29.3231C21.408 29.7788 19.6283 30.7422 17.7439 31.771C17.0242 32.1616 16.2783 32.5783 15.5716 32.9559L15.4278 32.7994C11.6853 28.828 4.76279 26.0155 5.05068 20.677C5.15537 18.7369 5.83584 13.6197 18.3461 7.42179C28.5924 2.34367 36.7973 3.7369 38.2235 6.83586C40.2519 11.2629 33.8397 19.4921 23.1879 20.677C19.1313 21.1327 16.9981 19.5702 16.4618 18.9843C15.8991 18.3723 15.8205 18.3463 15.6112 18.4635C15.2709 18.6458 15.4803 19.1926 15.6112 19.5181C15.9252 20.3385 17.2338 21.7968 19.4584 22.526C21.4081 23.164 26.1715 23.5155 31.9293 21.302C38.3807 18.815 43.4188 11.914 41.9401 6.14575C40.4352 0.273359 30.6469 -1.65373 21.3951 1.6145C15.8858 3.56763 9.91865 6.6145 5.62646 10.6119C0.522948 15.3515 -0.28838 19.4921 0.0518546 21.2109C1.24281 27.3437 9.73545 31.3411 13.1378 34.2968C12.9677 34.3878 12.8106 34.479 12.6667 34.5572C10.9655 35.3904 4.48799 38.7629 2.86533 42.3305C1.0333 46.367 3.15322 49.2707 4.5665 49.6614C8.93721 50.8723 13.4126 48.6978 15.8335 45.1171C18.2412 41.5364 17.9534 36.8879 16.8411 34.7655L16.8017 34.6874L18.1365 33.9062C19.0003 33.3984 19.8509 32.9296 20.5966 32.5258C20.178 33.6586 19.8769 34.9998 19.72 36.9529C19.5368 39.2447 20.479 42.2133 21.7222 43.3852C22.2718 43.8929 22.9261 43.906 23.3317 43.906C24.7712 43.906 25.4255 42.721 26.1452 41.3019C27.0351 39.5701 27.8202 37.5649 27.8202 37.5649C27.8202 37.5649 26.8388 42.9946 29.5214 42.9946C30.5028 42.9946 31.4843 41.7316 31.9292 41.0805V41.0935C31.9292 41.0935 31.9554 41.0545 32.0077 40.9633C32.0626 40.8825 32.115 40.8001 32.1647 40.7161V40.69C32.5573 40.0129 33.4341 38.4635 34.7427 35.8984C36.4306 32.5911 38.0534 28.4504 38.0534 28.4504C38.0534 28.4504 38.2104 29.4661 38.6946 31.1327C38.9824 32.1224 39.6105 33.203 40.0947 34.2577C39.7021 34.8046 39.4666 35.1172 39.4666 35.1172L39.4797 35.1303C39.1657 35.5469 38.8123 35.9898 38.446 36.4323C37.1112 38.0209 35.5147 39.8309 35.3054 40.3517C35.0567 40.9636 35.1091 41.4193 35.5933 41.784C35.9466 42.0444 36.5747 42.0964 37.2421 42.0444C38.446 41.9662 39.2835 41.6668 39.7022 41.4844C40.3565 41.25 41.1024 40.8985 41.8222 40.3777C43.1308 39.4142 43.929 38.0471 43.8505 36.2241C43.8112 35.2215 43.4841 34.2319 43.0784 33.2944C43.1962 33.1252 43.3141 32.9558 43.4317 32.7736C45.4993 29.7657 47.0958 26.4585 47.0958 26.4585C47.0958 26.4585 47.2528 27.4741 47.737 29.1408C47.9855 29.9872 48.4829 30.9118 48.9278 31.8232C46.9911 33.3987 45.7741 35.2217 45.3554 36.4196C44.5833 38.6331 45.1853 39.6357 46.3237 39.8701C46.834 39.9743 47.5669 39.7399 48.1164 39.5055C48.7968 39.2842 49.6213 38.9064 50.3804 38.3467C51.689 37.3831 52.9452 36.042 52.8798 34.2321C52.8405 33.3987 52.6181 32.5784 52.3171 31.7972C53.9659 31.1201 56.0988 30.7295 58.8077 31.055C64.631 31.7321 65.7825 35.3519 65.5602 36.8623C65.3377 38.3728 64.1207 39.206 63.7149 39.4665C63.3093 39.7138 63.1784 39.8051 63.2177 39.9873C63.27 40.2609 63.4532 40.2477 63.8065 40.1958C64.2907 40.1175 66.8687 38.9588 66.9733 36.1724C67.1304 32.5912 63.7149 28.6849 57.6562 28.7239ZM12.7452 43.789C10.8216 45.8853 8.11279 46.6796 6.96123 46.0025C5.71807 45.2864 6.20211 42.2004 8.5708 39.9739C10.0103 38.6197 11.8815 37.3697 13.1116 36.6015C13.3864 36.4322 13.8052 36.1849 14.3024 35.8853C14.381 35.8334 14.4333 35.8072 14.4333 35.8072C14.5249 35.7551 14.6296 35.69 14.7343 35.6249C15.611 38.802 14.7735 41.5885 12.7452 43.789ZM26.8126 34.2708C26.1452 35.8984 24.7319 40.078 23.8813 39.8437C23.1484 39.6484 22.7036 36.4843 23.7373 33.3593C24.2607 31.7836 25.373 29.9088 26.0273 29.1795C27.0874 28.0076 28.2388 27.617 28.5269 28.0987C28.8671 28.7239 27.2313 33.2551 26.8126 34.2708ZM38.4198 39.7916C38.1319 39.9349 37.8702 40.039 37.7524 39.961C37.6608 39.9089 37.8701 39.7136 37.8701 39.7136C37.8701 39.7136 39.3226 38.1641 39.8984 37.448C40.2255 37.0314 40.6181 36.5497 41.0369 36.0027V36.1589C41.037 38.0338 39.2312 39.2838 38.4198 39.7916ZM47.3705 37.7603C47.1611 37.6041 47.1874 37.1223 47.8939 35.6119C48.1688 35.0129 48.7968 34.0103 49.883 33.0598C50.0138 33.4504 50.0925 33.8279 50.0793 34.1796C50.0663 36.5234 48.3913 37.3957 47.3705 37.7603Z" fill="#CF649A"/>
</svg>
