<svg width="58" height="58" viewBox="0 0 58 58" fill="none" xmlns="http://www.w3.org/2000/svg">
<path d="M52.7499 3.02529C51.9341 4.97346 50.8992 6.82346 49.6528 8.52244C44.1987 3.0706 36.7958 0.00488281 29.0831 0.00488281C13.1289 0.00488281 0 13.1437 0 29.1141C0 37.0804 3.26335 44.707 9.03464 50.2041L10.1073 51.1555C15.3498 55.5729 21.9898 58.0043 28.8414 58.0043C44.0099 58.0043 56.7611 46.119 57.8414 30.9716C58.6345 23.5565 56.459 14.1782 52.7499 3.02529ZM13.1667 50.3702C12.6984 50.9517 11.9807 51.2915 11.2329 51.2915C9.86559 51.2915 8.74759 50.1664 8.74759 48.7996C8.74759 47.4329 9.87314 46.3078 11.2329 46.3078C11.7994 46.3078 12.3584 46.5041 12.7966 46.8666C13.8617 47.7274 14.0279 49.3055 13.1667 50.3702ZM52.6291 41.6563C45.4527 51.2235 30.1256 47.9992 20.2977 48.4598C20.2977 48.4598 18.5527 48.5655 16.8002 48.8525C16.8002 48.8525 17.4574 48.5731 18.311 48.2484C25.2079 45.8472 28.4712 45.379 32.6637 43.227C40.5577 39.2098 48.361 30.4204 49.9852 21.2761C46.9786 30.0731 37.8685 37.6317 29.5666 40.7049C23.8784 42.8041 13.6048 44.8429 13.6048 44.8429L13.1894 44.6239C6.19432 41.2184 5.98281 26.0635 18.6963 21.1704C24.2636 19.0259 29.5892 20.2039 35.6022 18.7692C42.0232 17.2439 49.4488 12.4263 52.4704 6.14387C55.8546 16.1943 59.9263 31.9306 52.6291 41.6563Z" fill="#77BC1F"/>
</svg>
