<svg width="62" height="63" viewBox="0 0 62 63" fill="none" xmlns="http://www.w3.org/2000/svg">
<g clip-path="url(#clip0)">
<path d="M31 62.5132C48.1208 62.5132 62 48.718 62 31.7009C62 14.6838 48.1208 0.888672 31 0.888672C13.8792 0.888672 0 14.6838 0 31.7009C0 48.718 13.8792 62.5132 31 62.5132Z" fill="#1A171B"/>
<path d="M44.491 12.2728C41.3459 12.3818 38.601 14.1047 36.5576 16.4878C34.2951 19.1008 32.7899 22.2001 31.7054 25.3637C29.7655 23.7833 28.2688 21.7374 25.1564 20.8453C22.7508 20.1588 20.224 20.4424 17.9005 22.163C16.7997 22.9803 16.0415 24.2157 15.6808 25.3769C14.7472 28.3948 16.6624 31.0805 17.5324 32.0449L19.4343 34.0708C19.8264 34.468 20.7706 35.5043 20.309 36.99C19.8101 38.6052 17.8508 39.6511 15.8412 39.0349C14.9436 38.7629 13.6542 38.0983 13.9429 37.1623C14.0623 36.7796 14.3379 36.4931 14.4856 36.1621C14.6213 35.8779 14.6859 35.6646 14.7271 35.5394C15.0943 34.3478 14.5927 32.7976 13.3086 32.404C12.1107 32.0391 10.885 32.3282 10.4099 33.8613C9.87099 35.603 10.7094 38.7639 15.2011 40.1403C20.4636 41.7473 24.9152 38.8994 25.5466 35.1848C25.9443 32.8582 24.8874 31.1299 22.9511 28.9068L21.3735 27.1727C20.4178 26.2237 20.0896 24.6063 21.0787 23.3633C21.9133 22.3147 23.1019 21.8672 25.0486 22.3934C27.8902 23.1603 29.1569 25.12 31.2704 26.7006C30.3978 29.5457 29.8275 32.4014 29.3111 34.9622L28.9965 36.8713C27.4858 44.7479 26.3325 49.073 23.3354 51.556C22.7316 51.9828 21.8685 52.6217 20.5675 52.6662C19.8855 52.6871 19.6651 52.2209 19.6556 52.0177C19.6394 51.5418 20.0429 51.3237 20.311 51.1095C20.7116 50.8923 21.3173 50.5322 21.2761 49.3784C21.2325 48.015 20.0962 46.8328 18.4536 46.887C17.2233 46.9286 15.3481 48.0795 15.4185 50.1861C15.4919 52.3619 17.5324 53.9926 20.6086 53.8893C22.2531 53.8332 25.9251 53.1679 29.5441 48.8919C33.7563 43.9904 34.9343 38.3712 35.8204 34.2585L36.8095 28.8288C37.359 28.8943 37.9466 28.9379 38.5857 28.953C43.8317 29.063 46.4558 26.3622 46.4948 24.3976C46.5208 23.2087 45.7099 22.0388 44.5748 22.0653C43.7622 22.0882 42.7414 22.6257 42.4963 23.7426C42.257 24.8384 44.1657 25.8273 42.6739 26.7878C41.614 27.4695 39.7141 27.95 37.0384 27.5595L37.5249 24.8868C38.5179 19.8184 39.7427 13.584 44.3888 13.4323C44.7274 13.4152 45.9664 13.4475 45.9952 14.2619C46.0037 14.5339 45.9359 14.6032 45.6155 15.2259C45.2892 15.7115 45.1662 16.1248 45.1815 16.5997C45.2263 17.8938 46.2163 18.7443 47.6481 18.693C49.5653 18.6314 50.1168 16.7762 50.0853 15.8234C50.0078 13.5847 47.6339 12.1705 44.4907 12.2728H44.491Z" fill="white"/>
</g>
<defs>
<clipPath id="clip0">
<rect width="62" height="61.872" fill="white" transform="translate(0 0.689453)"/>
</clipPath>
</defs>
</svg>
