<svg width="56" height="57" viewBox="0 0 56 57" fill="none" xmlns="http://www.w3.org/2000/svg">
<path d="M55.8351 4.14447C55.4322 3.81793 52.2658 2.13893 52.2658 2.13893L48.8872 4.07981L48.8852 4.07873L52.264 2.13806L48.8863 0.14788L48.8852 4.07873L45.3616 2.12855C45.3616 2.12855 42.4789 3.79457 41.0795 4.5932C39.3177 5.59813 34.9969 8.14192 34.9969 8.14192V11.898L31.4374 21.0672V26.046L28.9392 27.4876L27.9451 30.0588L20.9403 12.0912L20.9414 8.15079L6.98026 0.143555L0.00699907 4.13452L0 4.13322V8.19361L4.34905 18.5502L6.99185 20.0893L6.99404 24.8123L17.471 49.9721L27.9416 55.8966V55.9308L38.3986 49.9479L55.8729 8.111L55.8351 4.14447Z" fill="#3185B8"/>
<path d="M27.9495 55.9008L17.471 49.972L6.99426 24.8121L6.99185 20.0891L4.34905 18.55L0 8.19363V4.13281L3.44114 6.11651V10.1137L6.99798 12.1545L6.99841 8.13394L13.9476 12.1093L14.2825 16.0449L24.3852 41.9721L31.4057 46.0156V53.9452L27.9396 51.9293L27.9495 55.9008Z" fill="#3185B8"/>
<path d="M20.9404 12.0911L27.9454 30.0583L27.9309 39.9556L24.3804 41.9523L14.2827 16.0161L13.9481 12.1095L20.9417 8.15073L20.9406 12.0909L20.9404 12.0911ZM3.44141 6.11664V10.1137L6.99868 8.13386L3.44141 6.11621" fill="#61A5CE"/>
<path d="M6.99825 12.1554L6.99868 8.13477L3.44141 10.1146L6.99825 12.1554Z" fill="#EAE9E6"/>
<path d="M27.9316 39.9558L31.4334 41.9369L35.3325 32.258L38.3351 34.0246V24.7484L39.2931 22.5087L41.8495 23.9889V20.0676L38.3694 18.0683L41.869 16.0597L38.4278 14.099L38.4187 10.1134L34.9979 8.1416V11.8979L31.4384 21.0671V26.0459L28.9402 27.4875L27.9461 30.0587L27.9316 39.9558Z" fill="#3185B8"/>
<path d="M27.8828 44.0075L31.406 46.0158L31.3885 53.9472L38.3987 49.948L55.8732 8.11106L55.8354 4.14453L45.3617 10.1136V18.0771L41.849 20.0677V23.9891L39.2922 22.5088L38.3344 24.7486V34.0053L33.4692 36.8339L31.4329 41.9371L27.883 44.0077" fill="#61A5CE"/>
<path d="M13.9258 16.0886L17.4398 14.0703V18.0635L13.9258 16.0884" fill="#EAE9E6"/>
<path d="M17.4395 18.0634L20.9243 20.0099V16.0886L17.4395 14.0703V18.0634Z" fill="#3185B8"/>
<path d="M10.4648 25.9932V30.0155L13.9834 28.0136L10.4648 25.9932Z" fill="#61A5CE"/>
<path d="M17.4952 30.0341L13.9644 32.0669L10.4648 30.0155L13.9834 28.0137L17.4952 30.0341Z" fill="#EAE9E6"/>
<path d="M17.4473 41.9824V46.0389L20.984 44.0169L17.4473 41.9824Z" fill="#61A5CE"/>
<path d="M24.3926 49.9292L27.9549 51.9765L27.9678 47.8564L24.3926 49.9292Z" fill="#EAE9E6"/>
<path d="M27.9414 55.931L27.9545 51.9766L31.388 53.9473L27.9414 55.931Z" fill="#61A5CE"/>
<path d="M27.9294 39.9561L24.3789 41.9527L27.8815 44.0078L31.4313 41.9372L27.9296 39.9561" fill="#EAE9E6"/>
<path d="M45.3603 18.0774V10.1138L41.8927 8.16211V12.1297L38.4258 14.0994L45.3603 18.0774Z" fill="#3185B8"/>
<path d="M38.3672 18.0691L41.8667 16.0605L45.3601 18.0778L41.8475 20.0684L38.3672 18.0691Z" fill="#EAE9E6"/>
<path d="M38.4272 14.0994L41.8941 12.1297V8.16211L38.418 10.1138L38.4272 14.0994Z" fill="#61A5CE"/>
<path d="M48.8848 4.0795L48.8859 0.148438L52.2636 2.13862L48.8848 4.0795Z" fill="#3185B8"/>
<path d="M55.8344 4.14447L45.3607 10.1135L41.8931 8.16182L38.417 10.1135L34.9962 8.14171C34.9962 8.14171 39.317 5.59813 41.0788 4.59298C42.4782 3.79457 45.3607 2.12855 45.3607 2.12855L48.8865 4.07981L52.2651 2.13893C52.2651 2.13893 55.4315 3.81771 55.8344 4.14447C55.8344 4.14447 54.8816 4.69483 55.8344 4.14447ZM20.9405 8.15101L13.9469 12.1097L0.00585938 4.13452L6.97978 0.143555L20.9405 8.15101Z" fill="#EAE9E6"/>
<path d="M52.3191 10.0228V6.14844L48.9114 8.09256L52.3191 10.0228ZM41.9902 28.0346L45.3811 26.1115V29.9688L41.9902 28.0346Z" fill="#3185B8"/>
<path d="M34.9043 43.9814V47.9787L38.4362 45.9587L34.9043 43.9814Z" fill="#EAE9E6"/>
<path d="M38.4583 45.959L38.4148 41.9941L34.9043 43.982L38.4585 45.9592" fill="#3185B8"/>
</svg>
