<svg width="58" height="58" viewBox="0 0 58 58" fill="none" xmlns="http://www.w3.org/2000/svg">
<path d="M4.12305 28.9992C4.12305 38.8469 9.84575 47.3564 18.1441 51.3896L6.27694 18.8745C4.85433 22.0602 4.12036 25.5103 4.12305 28.9992ZM45.7957 27.7438C45.7957 24.6692 44.6913 22.5399 43.7441 20.8826C42.483 18.8333 41.3014 17.0979 41.3014 15.0486C41.3014 12.7617 43.0354 10.6329 45.4785 10.6329C45.5888 10.6329 45.6934 10.6467 45.8014 10.6528C41.3748 6.59785 35.4779 4.12207 29.0011 4.12207C20.3098 4.12207 12.6633 8.58132 8.21495 15.3355C8.79863 15.353 9.34917 15.3649 9.81593 15.3649C12.4181 15.3649 16.4461 15.0491 16.4461 15.0491C17.7872 14.9701 17.9453 16.9398 16.6061 17.0984C16.6061 17.0984 15.2579 17.257 13.7582 17.3355L22.8178 44.2827L28.2626 27.9544L24.3861 17.3351C23.0464 17.2565 21.7773 17.0979 21.7773 17.0979C20.4367 17.0193 20.5939 14.9696 21.9345 15.0486C21.9345 15.0486 26.0429 15.3644 28.4875 15.3644C31.0892 15.3644 35.1176 15.0486 35.1176 15.0486C36.4597 14.9696 36.6173 16.9393 35.2772 17.0979C35.2772 17.0979 33.9266 17.2565 32.4298 17.3351L41.4202 44.0782L43.9012 35.786C44.9772 32.345 45.7957 29.8735 45.7957 27.7438Z" fill="#00749A"/>
<path d="M29.4369 31.1754L21.9727 52.8648C24.2547 53.5373 26.6214 53.8788 29.0005 53.8788C31.8976 53.8788 34.6758 53.3774 37.2619 52.4686C37.1925 52.36 37.1333 52.2452 37.0849 52.1258L29.4369 31.1754ZM50.8299 17.0635C50.9369 17.8559 50.9975 18.7071 50.9975 19.6216C50.9975 22.1462 50.526 24.9841 49.1059 28.5325L41.5067 50.5036C48.9028 46.1906 53.8776 38.1777 53.8776 28.9993C53.8842 24.8274 52.8358 20.7215 50.8299 17.0635Z" fill="#00749A"/>
<path d="M29.0002 0C13.0099 0 0 13.009 0 28.9993C0 44.9915 13.0094 58.0005 29.0002 58.0005C44.9901 58.0005 58.0019 44.992 58.0019 28.9993C58.0014 13.009 44.9901 0 29.0002 0ZM29.0002 56.6707C13.7432 56.6707 1.32973 44.2573 1.32973 28.9993C1.32973 13.7427 13.7427 1.3302 29.0002 1.3302C44.2568 1.3302 56.6693 13.7427 56.6693 28.9993C56.6693 44.2573 44.2563 56.6707 29.0002 56.6707Z" fill="#00749A"/>
</svg>
