<svg width="59" height="64" viewBox="0 0 59 64" fill="none" xmlns="http://www.w3.org/2000/svg">
<path d="M50.9957 0.689453C55.4001 2.88891 59.1831 8.66069 58.9935 16.4927C58.4178 26.1429 51.2782 34.4596 43.5102 42.1222C43.0752 32.7775 41.0018 26.8221 37.7644 18.4476C34.7078 10.0083 43.644 0.95957 50.9957 0.689453Z" fill="url(#paint0_linear)"/>
<path d="M27.9527 42.0802C30.3955 39.2633 32.1268 36.7547 33.3349 34.4883C41.6112 38.4999 39.6583 37.7508 43.6499 42.0249C43.6633 42.158 43.6761 42.2906 43.688 42.4228C44.0192 48.3492 39.356 62.0498 20.9937 63.9274C19.7227 54.7213 23.855 46.8686 27.9527 42.0802Z" fill="url(#paint1_linear)"/>
<path d="M0.0627567 6.91676C12.4266 2.07715 25.733 7.03473 33.415 17.3639C34.1583 18.363 34.863 19.4009 35.5277 20.469C36.7281 28.0488 35.8126 32.2583 33.4762 34.4899C31.94 33.7231 30.3009 33.0432 28.551 32.4145C24.4833 30.9527 20.7287 29.9852 15.3669 28.4148C2.63491 24.9778 -0.504878 14.1788 0.0627567 6.91676Z" fill="url(#paint2_linear)"/>
<path d="M35.0998 20.3164C35.1892 20.4385 35.2776 20.5596 35.3648 20.6826L35.4723 20.8342C35.691 21.1431 35.9055 21.4537 36.117 21.7682L36.1527 21.8206L36.2095 21.9057L36.2612 21.9843L36.4126 22.2128L36.4231 22.2294L36.6282 22.5456L36.6346 22.5548C36.7829 22.785 36.9291 23.0162 37.0731 23.2491L37.0909 23.2787L37.251 23.5394L37.2553 23.5461L37.4309 23.8362L37.4813 23.9213L37.5792 24.087L37.6989 24.291L37.8149 24.489C37.9326 24.6942 38.0493 24.8996 38.164 25.1047L38.1935 25.1556C38.4002 25.5275 38.6018 25.9017 38.7982 26.2779L38.9478 26.5655L38.9623 26.5942L39.0582 26.781L39.1698 27.002L39.2327 27.1297L39.3339 27.3339L39.4062 27.4809L39.5589 27.7971L39.5693 27.8193L39.7324 28.1631L39.7523 28.2048C39.9261 28.5765 40.0943 28.9483 40.2573 29.3224L40.2731 29.3569L40.4077 29.6704L40.4161 29.6877L40.4941 29.8727C40.5804 30.0779 40.6656 30.2834 40.7496 30.4893L40.7823 30.5699C40.8748 30.7999 40.9662 31.0313 41.0547 31.2613L41.083 31.3343C41.166 31.5507 41.246 31.7671 41.3261 31.9834L41.365 32.0898L41.3745 32.1147L41.5006 32.4652L41.5057 32.4809L41.6227 32.8155L41.7394 33.1604L41.7427 33.1678L41.8395 33.4589L41.8701 33.5535L41.9287 33.7338C41.995 33.9416 42.0602 34.1488 42.1234 34.3569L42.1708 34.5121L42.2623 34.8189L42.2663 34.8339C42.378 35.2111 42.4829 35.5883 42.5831 35.9645L42.5925 36.0035L42.603 36.0432C42.7334 36.5397 42.8534 37.0345 42.9638 37.5272L42.9745 37.5763C43.1433 38.3339 43.2892 39.0954 43.412 39.8599L43.4141 39.87C43.452 40.1029 43.4867 40.3349 43.5193 40.5672L43.5328 40.6669L43.5771 40.9988V40.9997L43.6148 41.3068L43.6276 41.4084L43.6549 41.6517L43.6656 41.7495L43.6696 41.7894L43.7033 42.1231C40.6918 38.7143 37.0943 36.3648 32.7773 34.5269C36.2612 28.4728 35.772 24.1591 35.0998 20.3164Z" fill="url(#paint3_linear)"/>
<defs>
<linearGradient id="paint0_linear" x1="48.0744" y1="0.689453" x2="48.0744" y2="42.1222" gradientUnits="userSpaceOnUse">
<stop stop-color="#73B723"/>
<stop offset="1" stop-color="#D8EE61"/>
</linearGradient>
<linearGradient id="paint1_linear" x1="40.23" y1="42.2163" x2="19.7119" y2="58.7632" gradientUnits="userSpaceOnUse">
<stop stop-color="#98C9EA"/>
<stop offset="0.68865" stop-color="#026FB2"/>
<stop offset="1" stop-color="#086EB6"/>
</linearGradient>
<linearGradient id="paint2_linear" x1="1.63918e-07" y1="6.91133" x2="26.306" y2="30.7757" gradientUnits="userSpaceOnUse">
<stop stop-color="#D73721"/>
<stop offset="1" stop-color="#F7D768"/>
</linearGradient>
<linearGradient id="paint3_linear" x1="36.1601" y1="27.075" x2="45.3854" y2="31.2784" gradientUnits="userSpaceOnUse">
<stop stop-color="#D4C883"/>
<stop offset="1" stop-color="#A1D1A7"/>
</linearGradient>
</defs>
</svg>
